solid Exported from Blender-2.81 (sub 16)
facet normal 0.000000 -0.000000 1.000000
outer loop
vertex -0.000424 0.017262 0.148159
vertex -0.002306 0.093962 0.148159
vertex -0.004611 0.093877 0.148159
endloop
endfacet
facet normal 0.000000 -0.000000 1.000000
outer loop
vertex -0.000424 0.017262 0.148159
vertex -0.004611 0.093877 0.148159
vertex -0.000847 0.017246 0.148159
endloop
endfacet
facet normal 0.000001 -0.000000 1.000000
outer loop
vertex 0.005012 0.016524 0.148159
vertex 0.027284 0.089943 0.148159
vertex 0.025068 0.090585 0.148159
endloop
endfacet
facet normal 0.000000 -0.000000 1.000000
outer loop
vertex 0.005012 0.016524 0.148159
vertex 0.025068 0.090585 0.148159
vertex 0.004605 0.016642 0.148159
endloop
endfacet
facet normal -0.000008 0.000000 1.000000
outer loop
vertex -0.009238 -0.014588 0.148159
vertex -0.050285 -0.079407 0.148159
vertex -0.048321 -0.080618 0.148159
endloop
endfacet
facet normal 0.000057 0.000000 1.000000
outer loop
vertex -0.009238 -0.014588 0.148159
vertex -0.048321 -0.080618 0.148159
vertex -0.008877 -0.014810 0.148159
endloop
endfacet
facet normal 0.000003 -0.000000 1.000000
outer loop
vertex 0.015786 0.006998 0.148159
vertex 0.085926 0.038089 0.148159
vertex 0.084966 0.040186 0.148159
endloop
endfacet
facet normal -0.000057 -0.000000 1.000000
outer loop
vertex 0.015786 0.006998 0.148159
vertex 0.084966 0.040186 0.148159
vertex 0.015609 0.007383 0.148159
endloop
endfacet
facet normal 0.000002 0.000000 1.000000
outer loop
vertex -0.017080 -0.002533 0.148159
vertex -0.092973 -0.013791 0.148159
vertex -0.092606 -0.016068 0.148159
endloop
endfacet
facet normal -0.000007 0.000000 1.000000
outer loop
vertex -0.017080 -0.002533 0.148159
vertex -0.092606 -0.016068 0.148159
vertex -0.017013 -0.002952 0.148159
endloop
endfacet
facet normal -0.000000 0.000000 1.000000
outer loop
vertex 0.015609 -0.007382 0.148159
vertex 0.084966 -0.040186 0.148159
vertex 0.085926 -0.038088 0.148159
endloop
endfacet
facet normal 0.000029 0.000000 1.000000
outer loop
vertex 0.015609 -0.007382 0.148159
vertex 0.085926 -0.038088 0.148159
vertex 0.015786 -0.006997 0.148159
endloop
endfacet
facet normal -0.000001 -0.000000 1.000000
outer loop
vertex -0.013075 0.011279 0.148159
vertex -0.071169 0.061392 0.148159
vertex -0.072655 0.059627 0.148159
endloop
endfacet
facet normal -0.000029 -0.000000 1.000000
outer loop
vertex -0.013075 0.011279 0.148159
vertex -0.072655 0.059627 0.148159
vertex -0.013347 0.010954 0.148159
endloop
endfacet
facet normal 0.000003 0.000000 1.000000
outer loop
vertex 0.004605 -0.016641 0.148159
vertex 0.025068 -0.090585 0.148159
vertex 0.027284 -0.089943 0.148159
endloop
endfacet
facet normal 0.000057 0.000000 1.000000
outer loop
vertex 0.004605 -0.016641 0.148159
vertex 0.027284 -0.089943 0.148159
vertex 0.005012 -0.016523 0.148159
endloop
endfacet
facet normal 0.000001 -0.000000 1.000000
outer loop
vertex 0.000000 0.017267 0.148159
vertex 0.000000 0.093990 0.148159
vertex -0.002306 0.093962 0.148159
endloop
endfacet
facet normal 0.000000 -0.000000 1.000000
outer loop
vertex 0.000000 0.017267 0.148159
vertex -0.002306 0.093962 0.148159
vertex -0.000424 0.017262 0.148159
endloop
endfacet
facet normal 0.000008 -0.000000 1.000000
outer loop
vertex 0.005416 0.016396 0.148159
vertex 0.029483 0.089246 0.148159
vertex 0.027284 0.089943 0.148159
endloop
endfacet
facet normal 0.000000 -0.000000 1.000000
outer loop
vertex 0.005416 0.016396 0.148159
vertex 0.027284 0.089943 0.148159
vertex 0.005012 0.016524 0.148159
endloop
endfacet
facet normal 0.000001 0.000000 1.000000
outer loop
vertex -0.009593 -0.014357 0.148159
vertex -0.052218 -0.078149 0.148159
vertex -0.050285 -0.079407 0.148159
endloop
endfacet
facet normal 0.000000 0.000000 1.000000
outer loop
vertex -0.009593 -0.014357 0.148159
vertex -0.050285 -0.079407 0.148159
vertex -0.009238 -0.014588 0.148159
endloop
endfacet
facet normal 0.000002 -0.000000 1.000000
outer loop
vertex 0.015953 0.006608 0.148159
vertex 0.086835 0.035968 0.148159
vertex 0.085926 0.038089 0.148159
endloop
endfacet
facet normal 0.000000 -0.000000 1.000000
outer loop
vertex 0.015953 0.006608 0.148159
vertex 0.085926 0.038089 0.148159
vertex 0.015786 0.006998 0.148159
endloop
endfacet
facet normal -0.000000 0.000000 1.000000
outer loop
vertex -0.017137 -0.002113 0.148159
vertex -0.093283 -0.011505 0.148159
vertex -0.092973 -0.013791 0.148159
endloop
endfacet
facet normal 0.000000 0.000000 1.000000
outer loop
vertex -0.017137 -0.002113 0.148159
vertex -0.092973 -0.013791 0.148159
vertex -0.017080 -0.002533 0.148159
endloop
endfacet
facet normal -0.000003 0.000000 1.000000
outer loop
vertex 0.015423 -0.007763 0.148159
vertex 0.083954 -0.042259 0.148159
vertex 0.084966 -0.040186 0.148159
endloop
endfacet
facet normal 0.000000 0.000000 1.000000
outer loop
vertex 0.015423 -0.007763 0.148159
vertex 0.084966 -0.040186 0.148159
vertex 0.015609 -0.007382 0.148159
endloop
endfacet
facet normal -0.000001 -0.000000 1.000000
outer loop
vertex -0.012794 0.011596 0.148159
vertex -0.069641 0.063120 0.148159
vertex -0.071169 0.061392 0.148159
endloop
endfacet
facet normal 0.000029 -0.000000 1.000000
outer loop
vertex -0.012794 0.011596 0.148159
vertex -0.071169 0.061392 0.148159
vertex -0.013075 0.011279 0.148159
endloop
endfacet
facet normal 0.000000 0.000000 1.000000
outer loop
vertex 0.004196 -0.016749 0.148159
vertex 0.022838 -0.091173 0.148159
vertex 0.025068 -0.090585 0.148159
endloop
endfacet
facet normal 0.000000 0.000000 1.000000
outer loop
vertex 0.004196 -0.016749 0.148159
vertex 0.025068 -0.090585 0.148159
vertex 0.004605 -0.016641 0.148159
endloop
endfacet
facet normal 0.000004 -0.000000 1.000000
outer loop
vertex 0.005817 0.016258 0.148159
vertex 0.031664 0.088496 0.148159
vertex 0.029483 0.089246 0.148159
endloop
endfacet
facet normal -0.000057 -0.000000 1.000000
outer loop
vertex 0.005817 0.016258 0.148159
vertex 0.029483 0.089246 0.148159
vertex 0.005416 0.016396 0.148159
endloop
endfacet
facet normal 0.000005 0.000000 1.000000
outer loop
vertex -0.009943 -0.014117 0.148159
vertex -0.054120 -0.076844 0.148159
vertex -0.052218 -0.078149 0.148159
endloop
endfacet
facet normal 0.000057 0.000000 1.000000
outer loop
vertex -0.009943 -0.014117 0.148159
vertex -0.052218 -0.078149 0.148159
vertex -0.009593 -0.014357 0.148159
endloop
endfacet
facet normal -0.000001 -0.000000 1.000000
outer loop
vertex 0.016110 0.006215 0.148159
vertex 0.087692 0.033827 0.148159
vertex 0.086835 0.035968 0.148159
endloop
endfacet
facet normal 0.000000 -0.000000 1.000000
outer loop
vertex 0.016110 0.006215 0.148159
vertex 0.086835 0.035968 0.148159
vertex 0.015953 0.006608 0.148159
endloop
endfacet
facet normal 0.000000 0.000000 1.000000
outer loop
vertex -0.017184 -0.001692 0.148159
vertex -0.093537 -0.009212 0.148159
vertex -0.093283 -0.011505 0.148159
endloop
endfacet
facet normal 0.000007 0.000000 1.000000
outer loop
vertex -0.017184 -0.001692 0.148159
vertex -0.093283 -0.011505 0.148159
vertex -0.017137 -0.002113 0.148159
endloop
endfacet
facet normal -0.000002 0.000000 1.000000
outer loop
vertex 0.015228 -0.008139 0.148159
vertex 0.082892 -0.044306 0.148159
vertex 0.083954 -0.042259 0.148159
endloop
endfacet
facet normal 0.000029 0.000000 1.000000
outer loop
vertex 0.015228 -0.008139 0.148159
vertex 0.083954 -0.042259 0.148159
vertex 0.015423 -0.007763 0.148159
endloop
endfacet
facet normal -0.000001 -0.000000 1.000000
outer loop
vertex -0.012505 0.011907 0.148159
vertex -0.068071 0.064810 0.148159
vertex -0.069641 0.063120 0.148159
endloop
endfacet
facet normal -0.000029 -0.000000 1.000000
outer loop
vertex -0.012505 0.011907 0.148159
vertex -0.069641 0.063120 0.148159
vertex -0.012794 0.011596 0.148159
endloop
endfacet
facet normal -0.000002 0.000000 1.000000
outer loop
vertex 0.003783 -0.016847 0.148159
vertex 0.020593 -0.091706 0.148159
vertex 0.022838 -0.091173 0.148159
endloop
endfacet
facet normal 0.000000 0.000000 1.000000
outer loop
vertex 0.003783 -0.016847 0.148159
vertex 0.022838 -0.091173 0.148159
vertex 0.004196 -0.016749 0.148159
endloop
endfacet
facet normal 0.000006 -0.000000 1.000000
outer loop
vertex 0.006214 0.016110 0.148159
vertex 0.033826 0.087692 0.148159
vertex 0.031664 0.088496 0.148159
endloop
endfacet
facet normal -0.000057 -0.000000 1.000000
outer loop
vertex 0.006214 0.016110 0.148159
vertex 0.031664 0.088496 0.148159
vertex 0.005817 0.016258 0.148159
endloop
endfacet
facet normal -0.000003 0.000000 1.000000
outer loop
vertex -0.010286 -0.013869 0.148159
vertex -0.055990 -0.075493 0.148159
vertex -0.054120 -0.076844 0.148159
endloop
endfacet
facet normal -0.000057 0.000000 1.000000
outer loop
vertex -0.010286 -0.013869 0.148159
vertex -0.054120 -0.076844 0.148159
vertex -0.009943 -0.014117 0.148159
endloop
endfacet
facet normal 0.000001 -0.000000 1.000000
outer loop
vertex 0.016258 0.005817 0.148159
vertex 0.088496 0.031664 0.148159
vertex 0.087692 0.033827 0.148159
endloop
endfacet
facet normal -0.000029 -0.000000 1.000000
outer loop
vertex 0.016258 0.005817 0.148159
vertex 0.087692 0.033827 0.148159
vertex 0.016110 0.006215 0.148159
endloop
endfacet
facet normal 0.000001 0.000000 1.000000
outer loop
vertex -0.017220 -0.001270 0.148159
vertex -0.093735 -0.006914 0.148159
vertex -0.093537 -0.009212 0.148159
endloop
endfacet
facet normal 0.000000 0.000000 1.000000
outer loop
vertex -0.017220 -0.001270 0.148159
vertex -0.093537 -0.009212 0.148159
vertex -0.017184 -0.001692 0.148159
endloop
endfacet
facet normal -0.000000 0.000000 1.000000
outer loop
vertex 0.015024 -0.008511 0.148159
vertex 0.081779 -0.046327 0.148159
vertex 0.082892 -0.044306 0.148159
endloop
endfacet
facet normal 0.000000 0.000000 1.000000
outer loop
vertex 0.015024 -0.008511 0.148159
vertex 0.082892 -0.044306 0.148159
vertex 0.015228 -0.008139 0.148159
endloop
endfacet
facet normal 0.000004 -0.000000 1.000000
outer loop
vertex -0.012210 0.012210 0.148159
vertex -0.066460 0.066461 0.148159
vertex -0.068071 0.064810 0.148159
endloop
endfacet
facet normal 0.000000 -0.000000 1.000000
outer loop
vertex -0.012210 0.012210 0.148159
vertex -0.068071 0.064810 0.148159
vertex -0.012505 0.011907 0.148159
endloop
endfacet
facet normal 0.000003 0.000000 1.000000
outer loop
vertex 0.003369 -0.016935 0.148159
vertex 0.018336 -0.092184 0.148159
vertex 0.020593 -0.091706 0.148159
endloop
endfacet
facet normal 0.000000 0.000000 1.000000
outer loop
vertex 0.003369 -0.016935 0.148159
vertex 0.020593 -0.091706 0.148159
vertex 0.003783 -0.016847 0.148159
endloop
endfacet
facet normal 0.000010 -0.000000 1.000000
outer loop
vertex 0.006608 0.015953 0.148159
vertex 0.035968 0.086835 0.148159
vertex 0.033826 0.087692 0.148159
endloop
endfacet
facet normal 0.000000 -0.000000 1.000000
outer loop
vertex 0.006608 0.015953 0.148159
vertex 0.033826 0.087692 0.148159
vertex 0.006214 0.016110 0.148159
endloop
endfacet
facet normal 0.000005 0.000000 1.000000
outer loop
vertex -0.010623 -0.013612 0.148159
vertex -0.057826 -0.074096 0.148159
vertex -0.055990 -0.075493 0.148159
endloop
endfacet
facet normal 0.000000 0.000000 1.000000
outer loop
vertex -0.010623 -0.013612 0.148159
vertex -0.055990 -0.075493 0.148159
vertex -0.010286 -0.013869 0.148159
endloop
endfacet
facet normal -0.000000 -0.000000 1.000000
outer loop
vertex 0.016396 0.005417 0.148159
vertex 0.089246 0.029483 0.148159
vertex 0.088496 0.031664 0.148159
endloop
endfacet
facet normal 0.000000 -0.000000 1.000000
outer loop
vertex 0.016396 0.005417 0.148159
vertex 0.088496 0.031664 0.148159
vertex 0.016258 0.005817 0.148159
endloop
endfacet
facet normal 0.000001 0.000000 1.000000
outer loop
vertex -0.017246 -0.000847 0.148159
vertex -0.093877 -0.004611 0.148159
vertex -0.093735 -0.006914 0.148159
endloop
endfacet
facet normal -0.000004 0.000000 1.000000
outer loop
vertex -0.017246 -0.000847 0.148159
vertex -0.093735 -0.006914 0.148159
vertex -0.017220 -0.001270 0.148159
endloop
endfacet
facet normal -0.000001 0.000000 1.000000
outer loop
vertex 0.014811 -0.008877 0.148159
vertex 0.080618 -0.048320 0.148159
vertex 0.081779 -0.046327 0.148159
endloop
endfacet
facet normal -0.000029 0.000000 1.000000
outer loop
vertex 0.014811 -0.008877 0.148159
vertex 0.081779 -0.046327 0.148159
vertex 0.015024 -0.008511 0.148159
endloop
endfacet
facet normal -0.000009 -0.000000 1.000000
outer loop
vertex -0.011906 0.012506 0.148159
vertex -0.064809 0.068072 0.148159
vertex -0.066460 0.066461 0.148159
endloop
endfacet
facet normal 0.000000 -0.000000 1.000000
outer loop
vertex -0.011906 0.012506 0.148159
vertex -0.066460 0.066461 0.148159
vertex -0.012210 0.012210 0.148159
endloop
endfacet
facet normal 0.000003 0.000000 1.000000
outer loop
vertex 0.002952 -0.017013 0.148159
vertex 0.016069 -0.092606 0.148159
vertex 0.018336 -0.092184 0.148159
endloop
endfacet
facet normal -0.000057 0.000000 1.000000
outer loop
vertex 0.002952 -0.017013 0.148159
vertex 0.018336 -0.092184 0.148159
vertex 0.003369 -0.016935 0.148159
endloop
endfacet
facet normal -0.000009 -0.000000 1.000000
outer loop
vertex 0.006997 0.015786 0.148159
vertex 0.038089 0.085926 0.148159
vertex 0.035968 0.086835 0.148159
endloop
endfacet
facet normal 0.000000 -0.000000 1.000000
outer loop
vertex 0.006997 0.015786 0.148159
vertex 0.035968 0.086835 0.148159
vertex 0.006608 0.015953 0.148159
endloop
endfacet
facet normal 0.000001 0.000000 1.000000
outer loop
vertex -0.010954 -0.013347 0.148159
vertex -0.059627 -0.072655 0.148159
vertex -0.057826 -0.074096 0.148159
endloop
endfacet
facet normal 0.000000 0.000000 1.000000
outer loop
vertex -0.010954 -0.013347 0.148159
vertex -0.057826 -0.074096 0.148159
vertex -0.010623 -0.013612 0.148159
endloop
endfacet
facet normal 0.000001 -0.000000 1.000000
outer loop
vertex 0.016524 0.005013 0.148159
vertex 0.089943 0.027284 0.148159
vertex 0.089246 0.029483 0.148159
endloop
endfacet
facet normal -0.000014 -0.000000 1.000000
outer loop
vertex 0.016524 0.005013 0.148159
vertex 0.089246 0.029483 0.148159
vertex 0.016396 0.005417 0.148159
endloop
endfacet
facet normal 0.000000 0.000000 1.000000
outer loop
vertex -0.017262 -0.000423 0.148159
vertex -0.093961 -0.002306 0.148159
vertex -0.093877 -0.004611 0.148159
endloop
endfacet
facet normal 0.000000 0.000000 1.000000
outer loop
vertex -0.017262 -0.000423 0.148159
vertex -0.093877 -0.004611 0.148159
vertex -0.017246 -0.000847 0.148159
endloop
endfacet
facet normal 0.000003 0.000000 1.000000
outer loop
vertex 0.014588 -0.009238 0.148159
vertex 0.079408 -0.050284 0.148159
vertex 0.080618 -0.048320 0.148159
endloop
endfacet
facet normal 0.000000 0.000000 1.000000
outer loop
vertex 0.014588 -0.009238 0.148159
vertex 0.080618 -0.048320 0.148159
vertex 0.014811 -0.008877 0.148159
endloop
endfacet
facet normal -0.000007 -0.000000 1.000000
outer loop
vertex -0.011596 0.012794 0.148159
vertex -0.063119 0.069642 0.148159
vertex -0.064809 0.068072 0.148159
endloop
endfacet
facet normal 0.000057 -0.000000 1.000000
outer loop
vertex -0.011596 0.012794 0.148159
vertex -0.064809 0.068072 0.148159
vertex -0.011906 0.012506 0.148159
endloop
endfacet
facet normal 0.000005 0.000000 1.000000
outer loop
vertex 0.002534 -0.017080 0.148159
vertex 0.013791 -0.092972 0.148159
vertex 0.016069 -0.092606 0.148159
endloop
endfacet
facet normal 0.000000 0.000000 1.000000
outer loop
vertex 0.002534 -0.017080 0.148159
vertex 0.016069 -0.092606 0.148159
vertex 0.002952 -0.017013 0.148159
endloop
endfacet
facet normal 0.000002 -0.000000 1.000000
outer loop
vertex 0.007383 0.015609 0.148159
vertex 0.040186 0.084966 0.148159
vertex 0.038089 0.085926 0.148159
endloop
endfacet
facet normal 0.000057 -0.000000 1.000000
outer loop
vertex 0.007383 0.015609 0.148159
vertex 0.038089 0.085926 0.148159
vertex 0.006997 0.015786 0.148159
endloop
endfacet
facet normal 0.000006 0.000000 1.000000
outer loop
vertex -0.011278 -0.013075 0.148159
vertex -0.061392 -0.071170 0.148159
vertex -0.059627 -0.072655 0.148159
endloop
endfacet
facet normal 0.000000 0.000000 1.000000
outer loop
vertex -0.011278 -0.013075 0.148159
vertex -0.059627 -0.072655 0.148159
vertex -0.010954 -0.013347 0.148159
endloop
endfacet
facet normal -0.000002 -0.000000 1.000000
outer loop
vertex 0.016642 0.004606 0.148159
vertex 0.090585 0.025068 0.148159
vertex 0.089943 0.027284 0.148159
endloop
endfacet
facet normal 0.000000 -0.000000 1.000000
outer loop
vertex 0.016642 0.004606 0.148159
vertex 0.089943 0.027284 0.148159
vertex 0.016524 0.005013 0.148159
endloop
endfacet
facet normal 0.000001 0.000000 1.000000
outer loop
vertex -0.017267 0.000000 0.148159
vertex -0.093990 0.000001 0.148159
vertex -0.093961 -0.002306 0.148159
endloop
endfacet
facet normal 0.000000 0.000000 1.000000
outer loop
vertex -0.017267 0.000000 0.148159
vertex -0.093961 -0.002306 0.148159
vertex -0.017262 -0.000423 0.148159
endloop
endfacet
facet normal -0.000006 0.000000 1.000000
outer loop
vertex 0.014357 -0.009593 0.148159
vertex 0.078150 -0.052218 0.148159
vertex 0.079408 -0.050284 0.148159
endloop
endfacet
facet normal 0.000000 0.000000 1.000000
outer loop
vertex 0.014357 -0.009593 0.148159
vertex 0.079408 -0.050284 0.148159
vertex 0.014588 -0.009238 0.148159
endloop
endfacet
facet normal 0.000001 -0.000000 1.000000
outer loop
vertex -0.011278 0.013075 0.148159
vertex -0.061391 0.071170 0.148159
vertex -0.063119 0.069642 0.148159
endloop
endfacet
facet normal 0.000057 -0.000000 1.000000
outer loop
vertex -0.011278 0.013075 0.148159
vertex -0.063119 0.069642 0.148159
vertex -0.011596 0.012794 0.148159
endloop
endfacet
facet normal 0.000009 0.000000 1.000000
outer loop
vertex 0.002114 -0.017137 0.148159
vertex 0.011505 -0.093283 0.148159
vertex 0.013791 -0.092972 0.148159
endloop
endfacet
facet normal 0.000000 0.000000 1.000000
outer loop
vertex 0.002114 -0.017137 0.148159
vertex 0.013791 -0.092972 0.148159
vertex 0.002534 -0.017080 0.148159
endloop
endfacet
facet normal 0.000006 -0.000000 1.000000
outer loop
vertex 0.007764 0.015424 0.148159
vertex 0.042259 0.083954 0.148159
vertex 0.040186 0.084966 0.148159
endloop
endfacet
facet normal -0.000057 -0.000000 1.000000
outer loop
vertex 0.007764 0.015424 0.148159
vertex 0.040186 0.084966 0.148159
vertex 0.007383 0.015609 0.148159
endloop
endfacet
facet normal -0.000002 0.000000 1.000000
outer loop
vertex -0.011596 -0.012794 0.148159
vertex -0.063120 -0.069642 0.148159
vertex -0.061392 -0.071170 0.148159
endloop
endfacet
facet normal 0.000000 0.000000 1.000000
outer loop
vertex -0.011596 -0.012794 0.148159
vertex -0.061392 -0.071170 0.148159
vertex -0.011278 -0.013075 0.148159
endloop
endfacet
facet normal -0.000001 -0.000000 1.000000
outer loop
vertex 0.016750 0.004196 0.148159
vertex 0.091173 0.022838 0.148159
vertex 0.090585 0.025068 0.148159
endloop
endfacet
facet normal 0.000000 -0.000000 1.000000
outer loop
vertex 0.016750 0.004196 0.148159
vertex 0.090585 0.025068 0.148159
vertex 0.016642 0.004606 0.148159
endloop
endfacet
facet normal 0.000000 -0.000000 1.000000
outer loop
vertex -0.017262 0.000424 0.148159
vertex -0.093961 0.002307 0.148159
vertex -0.093990 0.000001 0.148159
endloop
endfacet
facet normal 0.000000 -0.000000 1.000000
outer loop
vertex -0.017262 0.000424 0.148159
vertex -0.093990 0.000001 0.148159
vertex -0.017267 0.000000 0.148159
endloop
endfacet
facet normal 0.000001 0.000000 1.000000
outer loop
vertex 0.014117 -0.009942 0.148159
vertex 0.076845 -0.054120 0.148159
vertex 0.078150 -0.052218 0.148159
endloop
endfacet
facet normal 0.000000 0.000000 1.000000
outer loop
vertex 0.014117 -0.009942 0.148159
vertex 0.078150 -0.052218 0.148159
vertex 0.014357 -0.009593 0.148159
endloop
endfacet
facet normal 0.000002 -0.000000 1.000000
outer loop
vertex -0.010954 0.013348 0.148159
vertex -0.059626 0.072656 0.148159
vertex -0.061391 0.071170 0.148159
endloop
endfacet
facet normal 0.000000 -0.000000 1.000000
outer loop
vertex -0.010954 0.013348 0.148159
vertex -0.061391 0.071170 0.148159
vertex -0.011278 0.013075 0.148159
endloop
endfacet
facet normal 0.000005 0.000000 1.000000
outer loop
vertex 0.001693 -0.017184 0.148159
vertex 0.009213 -0.093537 0.148159
vertex 0.011505 -0.093283 0.148159
endloop
endfacet
facet normal -0.000057 0.000000 1.000000
outer loop
vertex 0.001693 -0.017184 0.148159
vertex 0.011505 -0.093283 0.148159
vertex 0.002114 -0.017137 0.148159
endloop
endfacet
facet normal -0.000001 -0.000000 1.000000
outer loop
vertex 0.008140 0.015228 0.148159
vertex 0.044306 0.082892 0.148159
vertex 0.042259 0.083954 0.148159
endloop
endfacet
facet normal 0.000057 -0.000000 1.000000
outer loop
vertex 0.008140 0.015228 0.148159
vertex 0.042259 0.083954 0.148159
vertex 0.007764 0.015424 0.148159
endloop
endfacet
facet normal -0.000001 0.000000 1.000000
outer loop
vertex -0.011906 -0.012505 0.148159
vertex -0.064810 -0.068072 0.148159
vertex -0.063120 -0.069642 0.148159
endloop
endfacet
facet normal 0.000000 0.000000 1.000000
outer loop
vertex -0.011906 -0.012505 0.148159
vertex -0.063120 -0.069642 0.148159
vertex -0.011596 -0.012794 0.148159
endloop
endfacet
facet normal 0.000000 -0.000000 1.000000
outer loop
vertex 0.016848 0.003783 0.148159
vertex 0.091706 0.020593 0.148159
vertex 0.091173 0.022838 0.148159
endloop
endfacet
facet normal 0.000029 -0.000000 1.000000
outer loop
vertex 0.016848 0.003783 0.148159
vertex 0.091173 0.022838 0.148159
vertex 0.016750 0.004196 0.148159
endloop
endfacet
facet normal 0.000000 -0.000000 1.000000
outer loop
vertex -0.017246 0.000848 0.148159
vertex -0.093877 0.004612 0.148159
vertex -0.093961 0.002307 0.148159
endloop
endfacet
facet normal 0.000000 -0.000000 1.000000
outer loop
vertex -0.017246 0.000848 0.148159
vertex -0.093961 0.002307 0.148159
vertex -0.017262 0.000424 0.148159
endloop
endfacet
facet normal 0.000002 0.000000 1.000000
outer loop
vertex 0.013869 -0.010286 0.148159
vertex 0.075493 -0.055990 0.148159
vertex 0.076845 -0.054120 0.148159
endloop
endfacet
facet normal 0.000000 0.000000 1.000000
outer loop
vertex 0.013869 -0.010286 0.148159
vertex 0.076845 -0.054120 0.148159
vertex 0.014117 -0.009942 0.148159
endloop
endfacet
facet normal -0.000005 -0.000000 1.000000
outer loop
vertex -0.010623 0.013613 0.148159
vertex -0.057825 0.074097 0.148159
vertex -0.059626 0.072656 0.148159
endloop
endfacet
facet normal 0.000000 -0.000000 1.000000
outer loop
vertex -0.010623 0.013613 0.148159
vertex -0.059626 0.072656 0.148159
vertex -0.010954 0.013348 0.148159
endloop
endfacet
facet normal 0.000002 0.000000 1.000000
outer loop
vertex 0.001270 -0.017220 0.148159
vertex 0.006914 -0.093735 0.148159
vertex 0.009213 -0.093537 0.148159
endloop
endfacet
facet normal -0.000057 0.000000 1.000000
outer loop
vertex 0.001270 -0.017220 0.148159
vertex 0.009213 -0.093537 0.148159
vertex 0.001693 -0.017184 0.148159
endloop
endfacet
facet normal 0.000002 -0.000000 1.000000
outer loop
vertex 0.008511 0.015024 0.148159
vertex 0.046327 0.081779 0.148159
vertex 0.044306 0.082892 0.148159
endloop
endfacet
facet normal 0.000000 -0.000000 1.000000
outer loop
vertex 0.008511 0.015024 0.148159
vertex 0.044306 0.082892 0.148159
vertex 0.008140 0.015228 0.148159
endloop
endfacet
facet normal -0.000007 0.000000 1.000000
outer loop
vertex -0.012210 -0.012209 0.148159
vertex -0.066461 -0.066461 0.148159
vertex -0.064810 -0.068072 0.148159
endloop
endfacet
facet normal 0.000000 0.000000 1.000000
outer loop
vertex -0.012210 -0.012209 0.148159
vertex -0.064810 -0.068072 0.148159
vertex -0.011906 -0.012505 0.148159
endloop
endfacet
facet normal -0.000002 -0.000000 1.000000
outer loop
vertex 0.016935 0.003369 0.148159
vertex 0.092184 0.018337 0.148159
vertex 0.091706 0.020593 0.148159
endloop
endfacet
facet normal -0.000014 -0.000000 1.000000
outer loop
vertex 0.016935 0.003369 0.148159
vertex 0.091706 0.020593 0.148159
vertex 0.016848 0.003783 0.148159
endloop
endfacet
facet normal 0.000001 -0.000000 1.000000
outer loop
vertex -0.017220 0.001271 0.148159
vertex -0.093735 0.006915 0.148159
vertex -0.093877 0.004612 0.148159
endloop
endfacet
facet normal 0.000000 -0.000000 1.000000
outer loop
vertex -0.017220 0.001271 0.148159
vertex -0.093877 0.004612 0.148159
vertex -0.017246 0.000848 0.148159
endloop
endfacet
facet normal 0.000007 0.000000 1.000000
outer loop
vertex 0.013613 -0.010623 0.148159
vertex 0.074097 -0.057825 0.148159
vertex 0.075493 -0.055990 0.148159
endloop
endfacet
facet normal -0.000029 0.000000 1.000000
outer loop
vertex 0.013613 -0.010623 0.148159
vertex 0.075493 -0.055990 0.148159
vertex 0.013869 -0.010286 0.148159
endloop
endfacet
facet normal 0.000010 -0.000000 1.000000
outer loop
vertex -0.010286 0.013869 0.148159
vertex -0.055989 0.075494 0.148159
vertex -0.057825 0.074097 0.148159
endloop
endfacet
facet normal 0.000000 -0.000000 1.000000
outer loop
vertex -0.010286 0.013869 0.148159
vertex -0.057825 0.074097 0.148159
vertex -0.010623 0.013613 0.148159
endloop
endfacet
facet normal -0.000003 0.000000 1.000000
outer loop
vertex 0.000847 -0.017246 0.148159
vertex 0.004612 -0.093877 0.148159
vertex 0.006914 -0.093735 0.148159
endloop
endfacet
facet normal 0.000000 0.000000 1.000000
outer loop
vertex 0.000847 -0.017246 0.148159
vertex 0.006914 -0.093735 0.148159
vertex 0.001270 -0.017220 0.148159
endloop
endfacet
facet normal 0.000004 -0.000000 1.000000
outer loop
vertex 0.008877 0.014811 0.148159
vertex 0.048320 0.080618 0.148159
vertex 0.046327 0.081779 0.148159
endloop
endfacet
facet normal -0.000057 -0.000000 1.000000
outer loop
vertex 0.008877 0.014811 0.148159
vertex 0.046327 0.081779 0.148159
vertex 0.008511 0.015024 0.148159
endloop
endfacet
facet normal 0.000002 0.000000 1.000000
outer loop
vertex -0.012506 -0.011906 0.148159
vertex -0.068072 -0.064809 0.148159
vertex -0.066461 -0.066461 0.148159
endloop
endfacet
facet normal 0.000000 0.000000 1.000000
outer loop
vertex -0.012506 -0.011906 0.148159
vertex -0.066461 -0.066461 0.148159
vertex -0.012210 -0.012209 0.148159
endloop
endfacet
facet normal -0.000002 -0.000000 1.000000
outer loop
vertex 0.017013 0.002952 0.148159
vertex 0.092606 0.016069 0.148159
vertex 0.092184 0.018337 0.148159
endloop
endfacet
facet normal 0.000014 -0.000000 1.000000
outer loop
vertex 0.017013 0.002952 0.148159
vertex 0.092184 0.018337 0.148159
vertex 0.016935 0.003369 0.148159
endloop
endfacet
facet normal 0.000000 -0.000000 1.000000
outer loop
vertex -0.017184 0.001693 0.148159
vertex -0.093537 0.009213 0.148159
vertex -0.093735 0.006915 0.148159
endloop
endfacet
facet normal -0.000004 -0.000000 1.000000
outer loop
vertex -0.017184 0.001693 0.148159
vertex -0.093735 0.006915 0.148159
vertex -0.017220 0.001271 0.148159
endloop
endfacet
facet normal 0.000001 0.000000 1.000000
outer loop
vertex 0.013348 -0.010954 0.148159
vertex 0.072655 -0.059626 0.148159
vertex 0.074097 -0.057825 0.148159
endloop
endfacet
facet normal -0.000029 0.000000 1.000000
outer loop
vertex 0.013348 -0.010954 0.148159
vertex 0.074097 -0.057825 0.148159
vertex 0.013613 -0.010623 0.148159
endloop
endfacet
facet normal 0.000002 -0.000000 1.000000
outer loop
vertex -0.009942 0.014118 0.148159
vertex -0.054119 0.076845 0.148159
vertex -0.055989 0.075494 0.148159
endloop
endfacet
facet normal 0.000000 -0.000000 1.000000
outer loop
vertex -0.009942 0.014118 0.148159
vertex -0.055989 0.075494 0.148159
vertex -0.010286 0.013869 0.148159
endloop
endfacet
facet normal 0.000006 0.000000 1.000000
outer loop
vertex 0.000424 -0.017262 0.148159
vertex 0.002307 -0.093961 0.148159
vertex 0.004612 -0.093877 0.148159
endloop
endfacet
facet normal -0.000057 0.000000 1.000000
outer loop
vertex 0.000424 -0.017262 0.148159
vertex 0.004612 -0.093877 0.148159
vertex 0.000847 -0.017246 0.148159
endloop
endfacet
facet normal -0.000003 -0.000000 1.000000
outer loop
vertex 0.009238 0.014588 0.148159
vertex 0.050284 0.079408 0.148159
vertex 0.048320 0.080618 0.148159
endloop
endfacet
facet normal 0.000000 -0.000000 1.000000
outer loop
vertex 0.009238 0.014588 0.148159
vertex 0.048320 0.080618 0.148159
vertex 0.008877 0.014811 0.148159
endloop
endfacet
facet normal 0.000003 0.000000 1.000000
outer loop
vertex -0.012794 -0.011596 0.148159
vertex -0.069642 -0.063119 0.148159
vertex -0.068072 -0.064809 0.148159
endloop
endfacet
facet normal 0.000000 0.000000 1.000000
outer loop
vertex -0.012794 -0.011596 0.148159
vertex -0.068072 -0.064809 0.148159
vertex -0.012506 -0.011906 0.148159
endloop
endfacet
facet normal -0.000000 -0.000000 1.000000
outer loop
vertex 0.017080 0.002534 0.148159
vertex 0.092972 0.013791 0.148159
vertex 0.092606 0.016069 0.148159
endloop
endfacet
facet normal 0.000000 -0.000000 1.000000
outer loop
vertex 0.017080 0.002534 0.148159
vertex 0.092606 0.016069 0.148159
vertex 0.017013 0.002952 0.148159
endloop
endfacet
facet normal 0.000001 -0.000000 1.000000
outer loop
vertex -0.017137 0.002114 0.148159
vertex -0.093283 0.011506 0.148159
vertex -0.093537 0.009213 0.148159
endloop
endfacet
facet normal 0.000000 -0.000000 1.000000
outer loop
vertex -0.017137 0.002114 0.148159
vertex -0.093537 0.009213 0.148159
vertex -0.017184 0.001693 0.148159
endloop
endfacet
facet normal -0.000004 0.000000 1.000000
outer loop
vertex 0.013075 -0.011278 0.148159
vertex 0.071170 -0.061391 0.148159
vertex 0.072655 -0.059626 0.148159
endloop
endfacet
facet normal 0.000029 0.000000 1.000000
outer loop
vertex 0.013075 -0.011278 0.148159
vertex 0.072655 -0.059626 0.148159
vertex 0.013348 -0.010954 0.148159
endloop
endfacet
facet normal 0.000009 -0.000000 1.000000
outer loop
vertex -0.009593 0.014357 0.148159
vertex -0.052217 0.078150 0.148159
vertex -0.054119 0.076845 0.148159
endloop
endfacet
facet normal 0.000000 -0.000000 1.000000
outer loop
vertex -0.009593 0.014357 0.148159
vertex -0.054119 0.076845 0.148159
vertex -0.009942 0.014118 0.148159
endloop
endfacet
facet normal -0.000009 0.000000 1.000000
outer loop
vertex 0.000000 -0.017267 0.148159
vertex -0.000000 -0.093990 0.148159
vertex 0.002307 -0.093961 0.148159
endloop
endfacet
facet normal 0.000057 0.000000 1.000000
outer loop
vertex 0.000000 -0.017267 0.148159
vertex 0.002307 -0.093961 0.148159
vertex 0.000424 -0.017262 0.148159
endloop
endfacet
facet normal 0.000003 -0.000000 1.000000
outer loop
vertex 0.009593 0.014357 0.148159
vertex 0.052218 0.078150 0.148159
vertex 0.050284 0.079408 0.148159
endloop
endfacet
facet normal 0.000000 -0.000000 1.000000
outer loop
vertex 0.009593 0.014357 0.148159
vertex 0.050284 0.079408 0.148159
vertex 0.009238 0.014588 0.148159
endloop
endfacet
facet normal 0.000000 0.000000 1.000000
outer loop
vertex -0.013075 -0.011278 0.148159
vertex -0.071170 -0.061391 0.148159
vertex -0.069642 -0.063119 0.148159
endloop
endfacet
facet normal -0.000029 0.000000 1.000000
outer loop
vertex -0.013075 -0.011278 0.148159
vertex -0.069642 -0.063119 0.148159
vertex -0.012794 -0.011596 0.148159
endloop
endfacet
facet normal -0.000000 -0.000000 1.000000
outer loop
vertex 0.017137 0.002114 0.148159
vertex 0.093283 0.011505 0.148159
vertex 0.092972 0.013791 0.148159
endloop
endfacet
facet normal 0.000000 -0.000000 1.000000
outer loop
vertex 0.017137 0.002114 0.148159
vertex 0.092972 0.013791 0.148159
vertex 0.017080 0.002534 0.148159
endloop
endfacet
facet normal 0.000001 -0.000000 1.000000
outer loop
vertex -0.017080 0.002534 0.148159
vertex -0.092972 0.013792 0.148159
vertex -0.093283 0.011506 0.148159
endloop
endfacet
facet normal 0.000000 -0.000000 1.000000
outer loop
vertex -0.017080 0.002534 0.148159
vertex -0.093283 0.011506 0.148159
vertex -0.017137 0.002114 0.148159
endloop
endfacet
facet normal -0.000005 0.000000 1.000000
outer loop
vertex 0.012794 -0.011596 0.148159
vertex 0.069642 -0.063120 0.148159
vertex 0.071170 -0.061391 0.148159
endloop
endfacet
facet normal 0.000000 0.000000 1.000000
outer loop
vertex 0.012794 -0.011596 0.148159
vertex 0.071170 -0.061391 0.148159
vertex 0.013075 -0.011278 0.148159
endloop
endfacet
facet normal 0.000003 -0.000000 1.000000
outer loop
vertex -0.009238 0.014588 0.148159
vertex -0.050284 0.079408 0.148159
vertex -0.052217 0.078150 0.148159
endloop
endfacet
facet normal -0.000057 -0.000000 1.000000
outer loop
vertex -0.009238 0.014588 0.148159
vertex -0.052217 0.078150 0.148159
vertex -0.009593 0.014357 0.148159
endloop
endfacet
facet normal 0.000000 0.000000 1.000000
outer loop
vertex -0.000424 -0.017262 0.148159
vertex -0.002307 -0.093961 0.148159
vertex -0.000000 -0.093990 0.148159
endloop
endfacet
facet normal 0.000057 0.000000 1.000000
outer loop
vertex -0.000424 -0.017262 0.148159
vertex -0.000000 -0.093990 0.148159
vertex 0.000000 -0.017267 0.148159
endloop
endfacet
facet normal -0.000003 -0.000000 1.000000
outer loop
vertex 0.009943 0.014117 0.148159
vertex 0.054120 0.076845 0.148159
vertex 0.052218 0.078150 0.148159
endloop
endfacet
facet normal 0.000000 -0.000000 1.000000
outer loop
vertex 0.009943 0.014117 0.148159
vertex 0.052218 0.078150 0.148159
vertex 0.009593 0.014357 0.148159
endloop
endfacet
facet normal 0.000005 0.000000 1.000000
outer loop
vertex -0.013348 -0.010954 0.148159
vertex -0.072655 -0.059626 0.148159
vertex -0.071170 -0.061391 0.148159
endloop
endfacet
facet normal 0.000000 0.000000 1.000000
outer loop
vertex -0.013348 -0.010954 0.148159
vertex -0.071170 -0.061391 0.148159
vertex -0.013075 -0.011278 0.148159
endloop
endfacet
facet normal 0.000001 -0.000000 1.000000
outer loop
vertex 0.017184 0.001693 0.148159
vertex 0.093537 0.009213 0.148159
vertex 0.093283 0.011505 0.148159
endloop
endfacet
facet normal 0.000000 -0.000000 1.000000
outer loop
vertex 0.017184 0.001693 0.148159
vertex 0.093283 0.011505 0.148159
vertex 0.017137 0.002114 0.148159
endloop
endfacet
facet normal 0.000001 -0.000000 1.000000
outer loop
vertex -0.017013 0.002952 0.148159
vertex -0.092606 0.016069 0.148159
vertex -0.092972 0.013792 0.148159
endloop
endfacet
facet normal 0.000000 -0.000000 1.000000
outer loop
vertex -0.017013 0.002952 0.148159
vertex -0.092972 0.013792 0.148159
vertex -0.017080 0.002534 0.148159
endloop
endfacet
facet normal -0.000001 0.000000 1.000000
outer loop
vertex 0.012506 -0.011906 0.148159
vertex 0.068072 -0.064810 0.148159
vertex 0.069642 -0.063120 0.148159
endloop
endfacet
facet normal 0.000029 0.000000 1.000000
outer loop
vertex 0.012506 -0.011906 0.148159
vertex 0.069642 -0.063120 0.148159
vertex 0.012794 -0.011596 0.148159
endloop
endfacet
facet normal -0.000001 -0.000000 1.000000
outer loop
vertex -0.008877 0.014811 0.148159
vertex -0.048320 0.080618 0.148159
vertex -0.050284 0.079408 0.148159
endloop
endfacet
facet normal 0.000000 -0.000000 1.000000
outer loop
vertex -0.008877 0.014811 0.148159
vertex -0.050284 0.079408 0.148159
vertex -0.009238 0.014588 0.148159
endloop
endfacet
facet normal 0.000006 0.000000 1.000000
outer loop
vertex -0.000847 -0.017246 0.148159
vertex -0.004612 -0.093877 0.148159
vertex -0.002307 -0.093961 0.148159
endloop
endfacet
facet normal -0.000057 0.000000 1.000000
outer loop
vertex -0.000847 -0.017246 0.148159
vertex -0.002307 -0.093961 0.148159
vertex -0.000424 -0.017262 0.148159
endloop
endfacet
facet normal -0.000004 -0.000000 1.000000
outer loop
vertex 0.010286 0.013869 0.148159
vertex 0.055990 0.075493 0.148159
vertex 0.054120 0.076845 0.148159
endloop
endfacet
facet normal 0.000000 -0.000000 1.000000
outer loop
vertex 0.010286 0.013869 0.148159
vertex 0.054120 0.076845 0.148159
vertex 0.009943 0.014117 0.148159
endloop
endfacet
facet normal 0.000001 0.000000 1.000000
outer loop
vertex -0.013612 -0.010623 0.148159
vertex -0.074097 -0.057825 0.148159
vertex -0.072655 -0.059626 0.148159
endloop
endfacet
facet normal 0.000000 0.000000 1.000000
outer loop
vertex -0.013612 -0.010623 0.148159
vertex -0.072655 -0.059626 0.148159
vertex -0.013348 -0.010954 0.148159
endloop
endfacet
facet normal 0.000000 -0.000000 1.000000
outer loop
vertex 0.017220 0.001270 0.148159
vertex 0.093735 0.006914 0.148159
vertex 0.093537 0.009213 0.148159
endloop
endfacet
facet normal -0.000007 -0.000000 1.000000
outer loop
vertex 0.017220 0.001270 0.148159
vertex 0.093537 0.009213 0.148159
vertex 0.017184 0.001693 0.148159
endloop
endfacet
facet normal 0.000000 -0.000000 1.000000
outer loop
vertex -0.016935 0.003369 0.148159
vertex -0.092184 0.018337 0.148159
vertex -0.092606 0.016069 0.148159
endloop
endfacet
facet normal -0.000007 -0.000000 1.000000
outer loop
vertex -0.016935 0.003369 0.148159
vertex -0.092606 0.016069 0.148159
vertex -0.017013 0.002952 0.148159
endloop
endfacet
facet normal -0.000002 0.000000 1.000000
outer loop
vertex 0.012210 -0.012210 0.148159
vertex 0.066461 -0.066461 0.148159
vertex 0.068072 -0.064810 0.148159
endloop
endfacet
facet normal 0.000000 0.000000 1.000000
outer loop
vertex 0.012210 -0.012210 0.148159
vertex 0.068072 -0.064810 0.148159
vertex 0.012506 -0.011906 0.148159
endloop
endfacet
facet normal -0.000008 -0.000000 1.000000
outer loop
vertex -0.008511 0.015024 0.148159
vertex -0.046327 0.081780 0.148159
vertex -0.048320 0.080618 0.148159
endloop
endfacet
facet normal 0.000000 -0.000000 1.000000
outer loop
vertex -0.008511 0.015024 0.148159
vertex -0.048320 0.080618 0.148159
vertex -0.008877 0.014811 0.148159
endloop
endfacet
facet normal 0.000006 0.000000 1.000000
outer loop
vertex -0.001270 -0.017220 0.148159
vertex -0.006914 -0.093735 0.148159
vertex -0.004612 -0.093877 0.148159
endloop
endfacet
facet normal 0.000000 0.000000 1.000000
outer loop
vertex -0.001270 -0.017220 0.148159
vertex -0.004612 -0.093877 0.148159
vertex -0.000847 -0.017246 0.148159
endloop
endfacet
facet normal -0.000001 -0.000000 1.000000
outer loop
vertex 0.010623 0.013613 0.148159
vertex 0.057826 0.074097 0.148159
vertex 0.055990 0.075493 0.148159
endloop
endfacet
facet normal 0.000000 -0.000000 1.000000
outer loop
vertex 0.010623 0.013613 0.148159
vertex 0.055990 0.075493 0.148159
vertex 0.010286 0.013869 0.148159
endloop
endfacet
facet normal 0.000000 0.000000 1.000000
outer loop
vertex -0.013869 -0.010286 0.148159
vertex -0.075493 -0.055989 0.148159
vertex -0.074097 -0.057825 0.148159
endloop
endfacet
facet normal 0.000000 0.000000 1.000000
outer loop
vertex -0.013869 -0.010286 0.148159
vertex -0.074097 -0.057825 0.148159
vertex -0.013612 -0.010623 0.148159
endloop
endfacet
facet normal 0.000000 -0.000000 1.000000
outer loop
vertex 0.017246 0.000847 0.148159
vertex 0.093877 0.004612 0.148159
vertex 0.093735 0.006914 0.148159
endloop
endfacet
facet normal 0.000000 -0.000000 1.000000
outer loop
vertex 0.017246 0.000847 0.148159
vertex 0.093735 0.006914 0.148159
vertex 0.017220 0.001270 0.148159
endloop
endfacet
facet normal -0.000001 -0.000000 1.000000
outer loop
vertex -0.016847 0.003784 0.148159
vertex -0.091706 0.020594 0.148159
vertex -0.092184 0.018337 0.148159
endloop
endfacet
facet normal 0.000014 -0.000000 1.000000
outer loop
vertex -0.016847 0.003784 0.148159
vertex -0.092184 0.018337 0.148159
vertex -0.016935 0.003369 0.148159
endloop
endfacet
facet normal -0.000001 0.000000 1.000000
outer loop
vertex 0.011906 -0.012505 0.148159
vertex 0.064810 -0.068072 0.148159
vertex 0.066461 -0.066461 0.148159
endloop
endfacet
facet normal 0.000000 0.000000 1.000000
outer loop
vertex 0.011906 -0.012505 0.148159
vertex 0.066461 -0.066461 0.148159
vertex 0.012210 -0.012210 0.148159
endloop
endfacet
facet normal 0.000004 -0.000000 1.000000
outer loop
vertex -0.008139 0.015228 0.148159
vertex -0.044306 0.082892 0.148159
vertex -0.046327 0.081780 0.148159
endloop
endfacet
facet normal 0.000000 -0.000000 1.000000
outer loop
vertex -0.008139 0.015228 0.148159
vertex -0.046327 0.081780 0.148159
vertex -0.008511 0.015024 0.148159
endloop
endfacet
facet normal -0.000004 0.000000 1.000000
outer loop
vertex -0.001692 -0.017184 0.148159
vertex -0.009213 -0.093537 0.148159
vertex -0.006914 -0.093735 0.148159
endloop
endfacet
facet normal 0.000000 0.000000 1.000000
outer loop
vertex -0.001692 -0.017184 0.148159
vertex -0.006914 -0.093735 0.148159
vertex -0.001270 -0.017220 0.148159
endloop
endfacet
facet normal -0.000001 -0.000000 1.000000
outer loop
vertex 0.010954 0.013348 0.148159
vertex 0.059627 0.072655 0.148159
vertex 0.057826 0.074097 0.148159
endloop
endfacet
facet normal 0.000000 -0.000000 1.000000
outer loop
vertex 0.010954 0.013348 0.148159
vertex 0.057826 0.074097 0.148159
vertex 0.010623 0.013613 0.148159
endloop
endfacet
facet normal 0.000003 0.000000 1.000000
outer loop
vertex -0.014117 -0.009942 0.148159
vertex -0.076845 -0.054120 0.148159
vertex -0.075493 -0.055989 0.148159
endloop
endfacet
facet normal 0.000000 0.000000 1.000000
outer loop
vertex -0.014117 -0.009942 0.148159
vertex -0.075493 -0.055989 0.148159
vertex -0.013869 -0.010286 0.148159
endloop
endfacet
facet normal -0.000000 -0.000000 1.000000
outer loop
vertex 0.017262 0.000424 0.148159
vertex 0.093961 0.002307 0.148159
vertex 0.093877 0.004612 0.148159
endloop
endfacet
facet normal 0.000000 -0.000000 1.000000
outer loop
vertex 0.017262 0.000424 0.148159
vertex 0.093877 0.004612 0.148159
vertex 0.017246 0.000847 0.148159
endloop
endfacet
facet normal -0.000001 -0.000000 1.000000
outer loop
vertex -0.016750 0.004196 0.148159
vertex -0.091173 0.022838 0.148159
vertex -0.091706 0.020594 0.148159
endloop
endfacet
facet normal 0.000014 -0.000000 1.000000
outer loop
vertex -0.016750 0.004196 0.148159
vertex -0.091706 0.020594 0.148159
vertex -0.016847 0.003784 0.148159
endloop
endfacet
facet normal -0.000008 0.000000 1.000000
outer loop
vertex 0.011596 -0.012794 0.148159
vertex 0.063120 -0.069642 0.148159
vertex 0.064810 -0.068072 0.148159
endloop
endfacet
facet normal 0.000000 0.000000 1.000000
outer loop
vertex 0.011596 -0.012794 0.148159
vertex 0.064810 -0.068072 0.148159
vertex 0.011906 -0.012505 0.148159
endloop
endfacet
facet normal -0.000003 -0.000000 1.000000
outer loop
vertex -0.007763 0.015424 0.148159
vertex -0.042258 0.083954 0.148159
vertex -0.044306 0.082892 0.148159
endloop
endfacet
facet normal 0.000000 -0.000000 1.000000
outer loop
vertex -0.007763 0.015424 0.148159
vertex -0.044306 0.082892 0.148159
vertex -0.008139 0.015228 0.148159
endloop
endfacet
facet normal -0.000002 0.000000 1.000000
outer loop
vertex -0.002114 -0.017137 0.148159
vertex -0.011506 -0.093283 0.148159
vertex -0.009213 -0.093537 0.148159
endloop
endfacet
facet normal 0.000000 0.000000 1.000000
outer loop
vertex -0.002114 -0.017137 0.148159
vertex -0.009213 -0.093537 0.148159
vertex -0.001692 -0.017184 0.148159
endloop
endfacet
facet normal -0.000002 -0.000000 1.000000
outer loop
vertex 0.011278 0.013075 0.148159
vertex 0.061392 0.071170 0.148159
vertex 0.059627 0.072655 0.148159
endloop
endfacet
facet normal 0.000000 -0.000000 1.000000
outer loop
vertex 0.011278 0.013075 0.148159
vertex 0.059627 0.072655 0.148159
vertex 0.010954 0.013348 0.148159
endloop
endfacet
facet normal -0.000001 0.000000 1.000000
outer loop
vertex -0.014357 -0.009593 0.148159
vertex -0.078150 -0.052218 0.148159
vertex -0.076845 -0.054120 0.148159
endloop
endfacet
facet normal 0.000000 0.000000 1.000000
outer loop
vertex -0.014357 -0.009593 0.148159
vertex -0.076845 -0.054120 0.148159
vertex -0.014117 -0.009942 0.148159
endloop
endfacet
facet normal 0.000000 -0.000000 1.000000
outer loop
vertex 0.017267 0.000000 0.148159
vertex 0.093990 0.000000 0.148159
vertex 0.093961 0.002307 0.148159
endloop
endfacet
facet normal 0.000000 -0.000000 1.000000
outer loop
vertex 0.017267 0.000000 0.148159
vertex 0.093961 0.002307 0.148159
vertex 0.017262 0.000424 0.148159
endloop
endfacet
facet normal 0.000006 -0.000000 1.000000
outer loop
vertex -0.016642 0.004606 0.148159
vertex -0.090585 0.025069 0.148159
vertex -0.091173 0.022838 0.148159
endloop
endfacet
facet normal -0.000014 -0.000000 1.000000
outer loop
vertex -0.016642 0.004606 0.148159
vertex -0.091173 0.022838 0.148159
vertex -0.016750 0.004196 0.148159
endloop
endfacet
facet normal -0.000007 0.000000 1.000000
outer loop
vertex 0.011278 -0.013075 0.148159
vertex 0.061392 -0.071170 0.148159
vertex 0.063120 -0.069642 0.148159
endloop
endfacet
facet normal 0.000057 0.000000 1.000000
outer loop
vertex 0.011278 -0.013075 0.148159
vertex 0.063120 -0.069642 0.148159
vertex 0.011596 -0.012794 0.148159
endloop
endfacet
facet normal 0.000001 -0.000000 1.000000
outer loop
vertex -0.007382 0.015610 0.148159
vertex -0.040185 0.084966 0.148159
vertex -0.042258 0.083954 0.148159
endloop
endfacet
facet normal 0.000000 -0.000000 1.000000
outer loop
vertex -0.007382 0.015610 0.148159
vertex -0.042258 0.083954 0.148159
vertex -0.007763 0.015424 0.148159
endloop
endfacet
facet normal 0.000013 0.000000 1.000000
outer loop
vertex -0.002534 -0.017080 0.148159
vertex -0.013791 -0.092972 0.148159
vertex -0.011506 -0.093283 0.148159
endloop
endfacet
facet normal -0.000057 0.000000 1.000000
outer loop
vertex -0.002534 -0.017080 0.148159
vertex -0.011506 -0.093283 0.148159
vertex -0.002114 -0.017137 0.148159
endloop
endfacet
facet normal -0.000007 -0.000000 1.000000
outer loop
vertex 0.011596 0.012794 0.148159
vertex 0.063120 0.069642 0.148159
vertex 0.061392 0.071170 0.148159
endloop
endfacet
facet normal 0.000000 -0.000000 1.000000
outer loop
vertex 0.011596 0.012794 0.148159
vertex 0.061392 0.071170 0.148159
vertex 0.011278 0.013075 0.148159
endloop
endfacet
facet normal 0.000003 0.000000 1.000000
outer loop
vertex -0.014588 -0.009238 0.148159
vertex -0.079408 -0.050284 0.148159
vertex -0.078150 -0.052218 0.148159
endloop
endfacet
facet normal 0.000000 0.000000 1.000000
outer loop
vertex -0.014588 -0.009238 0.148159
vertex -0.078150 -0.052218 0.148159
vertex -0.014357 -0.009593 0.148159
endloop
endfacet
facet normal -0.000000 0.000000 1.000000
outer loop
vertex 0.017262 -0.000424 0.148159
vertex 0.093961 -0.002306 0.148159
vertex 0.093990 0.000000 0.148159
endloop
endfacet
facet normal -0.000001 0.000000 1.000000
outer loop
vertex 0.017262 -0.000424 0.148159
vertex 0.093990 0.000000 0.148159
vertex 0.017267 0.000000 0.148159
endloop
endfacet
facet normal 0.000001 -0.000000 1.000000
outer loop
vertex -0.016523 0.005013 0.148159
vertex -0.089942 0.027284 0.148159
vertex -0.090585 0.025069 0.148159
endloop
endfacet
facet normal -0.000029 -0.000000 1.000000
outer loop
vertex -0.016523 0.005013 0.148159
vertex -0.090585 0.025069 0.148159
vertex -0.016642 0.004606 0.148159
endloop
endfacet
facet normal -0.000006 0.000000 1.000000
outer loop
vertex 0.010954 -0.013347 0.148159
vertex 0.059627 -0.072655 0.148159
vertex 0.061392 -0.071170 0.148159
endloop
endfacet
facet normal 0.000000 0.000000 1.000000
outer loop
vertex 0.010954 -0.013347 0.148159
vertex 0.061392 -0.071170 0.148159
vertex 0.011278 -0.013075 0.148159
endloop
endfacet
facet normal 0.000004 -0.000000 1.000000
outer loop
vertex -0.006997 0.015786 0.148159
vertex -0.038088 0.085927 0.148159
vertex -0.040185 0.084966 0.148159
endloop
endfacet
facet normal 0.000057 -0.000000 1.000000
outer loop
vertex -0.006997 0.015786 0.148159
vertex -0.040185 0.084966 0.148159
vertex -0.007382 0.015610 0.148159
endloop
endfacet
facet normal -0.000001 0.000000 1.000000
outer loop
vertex -0.002952 -0.017013 0.148159
vertex -0.016069 -0.092606 0.148159
vertex -0.013791 -0.092972 0.148159
endloop
endfacet
facet normal -0.000057 0.000000 1.000000
outer loop
vertex -0.002952 -0.017013 0.148159
vertex -0.013791 -0.092972 0.148159
vertex -0.002534 -0.017080 0.148159
endloop
endfacet
facet normal -0.000006 -0.000000 1.000000
outer loop
vertex 0.011906 0.012506 0.148159
vertex 0.064810 0.068072 0.148159
vertex 0.063120 0.069642 0.148159
endloop
endfacet
facet normal 0.000057 -0.000000 1.000000
outer loop
vertex 0.011906 0.012506 0.148159
vertex 0.063120 0.069642 0.148159
vertex 0.011596 0.012794 0.148159
endloop
endfacet
facet normal -0.000001 0.000000 1.000000
outer loop
vertex -0.014810 -0.008877 0.148159
vertex -0.080618 -0.048320 0.148159
vertex -0.079408 -0.050284 0.148159
endloop
endfacet
facet normal 0.000000 0.000000 1.000000
outer loop
vertex -0.014810 -0.008877 0.148159
vertex -0.079408 -0.050284 0.148159
vertex -0.014588 -0.009238 0.148159
endloop
endfacet
facet normal -0.000000 0.000000 1.000000
outer loop
vertex 0.017246 -0.000847 0.148159
vertex 0.093877 -0.004612 0.148159
vertex 0.093961 -0.002306 0.148159
endloop
endfacet
facet normal 0.000000 0.000000 1.000000
outer loop
vertex 0.017246 -0.000847 0.148159
vertex 0.093961 -0.002306 0.148159
vertex 0.017262 -0.000424 0.148159
endloop
endfacet
facet normal -0.000003 -0.000000 1.000000
outer loop
vertex -0.016395 0.005417 0.148159
vertex -0.089246 0.029484 0.148159
vertex -0.089942 0.027284 0.148159
endloop
endfacet
facet normal 0.000014 -0.000000 1.000000
outer loop
vertex -0.016395 0.005417 0.148159
vertex -0.089942 0.027284 0.148159
vertex -0.016523 0.005013 0.148159
endloop
endfacet
facet normal -0.000001 0.000000 1.000000
outer loop
vertex 0.010623 -0.013612 0.148159
vertex 0.057826 -0.074096 0.148159
vertex 0.059627 -0.072655 0.148159
endloop
endfacet
facet normal 0.000000 0.000000 1.000000
outer loop
vertex 0.010623 -0.013612 0.148159
vertex 0.059627 -0.072655 0.148159
vertex 0.010954 -0.013347 0.148159
endloop
endfacet
facet normal 0.000003 -0.000000 1.000000
outer loop
vertex -0.006608 0.015953 0.148159
vertex -0.035968 0.086836 0.148159
vertex -0.038088 0.085927 0.148159
endloop
endfacet
facet normal -0.000057 -0.000000 1.000000
outer loop
vertex -0.006608 0.015953 0.148159
vertex -0.038088 0.085927 0.148159
vertex -0.006997 0.015786 0.148159
endloop
endfacet
facet normal -0.000001 0.000000 1.000000
outer loop
vertex -0.003369 -0.016935 0.148159
vertex -0.018337 -0.092184 0.148159
vertex -0.016069 -0.092606 0.148159
endloop
endfacet
facet normal 0.000000 0.000000 1.000000
outer loop
vertex -0.003369 -0.016935 0.148159
vertex -0.016069 -0.092606 0.148159
vertex -0.002952 -0.017013 0.148159
endloop
endfacet
facet normal -0.000003 -0.000000 1.000000
outer loop
vertex 0.012210 0.012210 0.148159
vertex 0.066461 0.066461 0.148159
vertex 0.064810 0.068072 0.148159
endloop
endfacet
facet normal 0.000000 -0.000000 1.000000
outer loop
vertex 0.012210 0.012210 0.148159
vertex 0.064810 0.068072 0.148159
vertex 0.011906 0.012506 0.148159
endloop
endfacet
facet normal -0.000003 0.000000 1.000000
outer loop
vertex -0.015024 -0.008511 0.148159
vertex -0.081779 -0.046327 0.148159
vertex -0.080618 -0.048320 0.148159
endloop
endfacet
facet normal 0.000000 0.000000 1.000000
outer loop
vertex -0.015024 -0.008511 0.148159
vertex -0.080618 -0.048320 0.148159
vertex -0.014810 -0.008877 0.148159
endloop
endfacet
facet normal -0.000001 0.000000 1.000000
outer loop
vertex 0.017220 -0.001270 0.148159
vertex 0.093735 -0.006914 0.148159
vertex 0.093877 -0.004612 0.148159
endloop
endfacet
facet normal 0.000000 0.000000 1.000000
outer loop
vertex 0.017220 -0.001270 0.148159
vertex 0.093877 -0.004612 0.148159
vertex 0.017246 -0.000847 0.148159
endloop
endfacet
facet normal 0.000001 -0.000000 1.000000
outer loop
vertex -0.016258 0.005817 0.148159
vertex -0.088495 0.031665 0.148159
vertex -0.089246 0.029484 0.148159
endloop
endfacet
facet normal 0.000014 -0.000000 1.000000
outer loop
vertex -0.016258 0.005817 0.148159
vertex -0.089246 0.029484 0.148159
vertex -0.016395 0.005417 0.148159
endloop
endfacet
facet normal -0.000001 0.000000 1.000000
outer loop
vertex 0.010286 -0.013869 0.148159
vertex 0.055990 -0.075493 0.148159
vertex 0.057826 -0.074096 0.148159
endloop
endfacet
facet normal 0.000000 0.000000 1.000000
outer loop
vertex 0.010286 -0.013869 0.148159
vertex 0.057826 -0.074096 0.148159
vertex 0.010623 -0.013612 0.148159
endloop
endfacet
facet normal -0.000005 -0.000000 1.000000
outer loop
vertex -0.006214 0.016110 0.148159
vertex -0.033826 0.087692 0.148159
vertex -0.035968 0.086836 0.148159
endloop
endfacet
facet normal 0.000000 -0.000000 1.000000
outer loop
vertex -0.006214 0.016110 0.148159
vertex -0.035968 0.086836 0.148159
vertex -0.006608 0.015953 0.148159
endloop
endfacet
facet normal -0.000005 0.000000 1.000000
outer loop
vertex -0.003783 -0.016847 0.148159
vertex -0.020593 -0.091706 0.148159
vertex -0.018337 -0.092184 0.148159
endloop
endfacet
facet normal 0.000057 0.000000 1.000000
outer loop
vertex -0.003783 -0.016847 0.148159
vertex -0.018337 -0.092184 0.148159
vertex -0.003369 -0.016935 0.148159
endloop
endfacet
facet normal -0.000006 -0.000000 1.000000
outer loop
vertex 0.012506 0.011907 0.148159
vertex 0.068072 0.064810 0.148159
vertex 0.066461 0.066461 0.148159
endloop
endfacet
facet normal 0.000057 -0.000000 1.000000
outer loop
vertex 0.012506 0.011907 0.148159
vertex 0.066461 0.066461 0.148159
vertex 0.012210 0.012210 0.148159
endloop
endfacet
facet normal 0.000000 0.000000 1.000000
outer loop
vertex -0.015228 -0.008139 0.148159
vertex -0.082892 -0.044306 0.148159
vertex -0.081779 -0.046327 0.148159
endloop
endfacet
facet normal 0.000000 0.000000 1.000000
outer loop
vertex -0.015228 -0.008139 0.148159
vertex -0.081779 -0.046327 0.148159
vertex -0.015024 -0.008511 0.148159
endloop
endfacet
facet normal -0.000000 0.000000 1.000000
outer loop
vertex 0.017184 -0.001692 0.148159
vertex 0.093537 -0.009212 0.148159
vertex 0.093735 -0.006914 0.148159
endloop
endfacet
facet normal 0.000000 0.000000 1.000000
outer loop
vertex 0.017184 -0.001692 0.148159
vertex 0.093735 -0.006914 0.148159
vertex 0.017220 -0.001270 0.148159
endloop
endfacet
facet normal -0.000003 -0.000000 1.000000
outer loop
vertex -0.016110 0.006215 0.148159
vertex -0.087692 0.033827 0.148159
vertex -0.088495 0.031665 0.148159
endloop
endfacet
facet normal 0.000000 -0.000000 1.000000
outer loop
vertex -0.016110 0.006215 0.148159
vertex -0.088495 0.031665 0.148159
vertex -0.016258 0.005817 0.148159
endloop
endfacet
facet normal 0.000005 0.000000 1.000000
outer loop
vertex 0.009943 -0.014117 0.148159
vertex 0.054120 -0.076845 0.148159
vertex 0.055990 -0.075493 0.148159
endloop
endfacet
facet normal 0.000000 0.000000 1.000000
outer loop
vertex 0.009943 -0.014117 0.148159
vertex 0.055990 -0.075493 0.148159
vertex 0.010286 -0.013869 0.148159
endloop
endfacet
facet normal -0.000001 -0.000000 1.000000
outer loop
vertex -0.005817 0.016258 0.148159
vertex -0.031663 0.088496 0.148159
vertex -0.033826 0.087692 0.148159
endloop
endfacet
facet normal 0.000057 -0.000000 1.000000
outer loop
vertex -0.005817 0.016258 0.148159
vertex -0.033826 0.087692 0.148159
vertex -0.006214 0.016110 0.148159
endloop
endfacet
facet normal 0.000005 0.000000 1.000000
outer loop
vertex -0.004196 -0.016749 0.148159
vertex -0.022838 -0.091173 0.148159
vertex -0.020593 -0.091706 0.148159
endloop
endfacet
facet normal 0.000000 0.000000 1.000000
outer loop
vertex -0.004196 -0.016749 0.148159
vertex -0.020593 -0.091706 0.148159
vertex -0.003783 -0.016847 0.148159
endloop
endfacet
facet normal -0.000001 -0.000000 1.000000
outer loop
vertex 0.012794 0.011596 0.148159
vertex 0.069642 0.063120 0.148159
vertex 0.068072 0.064810 0.148159
endloop
endfacet
facet normal 0.000000 -0.000000 1.000000
outer loop
vertex 0.012794 0.011596 0.148159
vertex 0.068072 0.064810 0.148159
vertex 0.012506 0.011907 0.148159
endloop
endfacet
facet normal -0.000003 0.000000 1.000000
outer loop
vertex -0.015423 -0.007763 0.148159
vertex -0.083954 -0.042258 0.148159
vertex -0.082892 -0.044306 0.148159
endloop
endfacet
facet normal 0.000057 0.000000 1.000000
outer loop
vertex -0.015423 -0.007763 0.148159
vertex -0.082892 -0.044306 0.148159
vertex -0.015228 -0.008139 0.148159
endloop
endfacet
facet normal -0.000001 0.000000 1.000000
outer loop
vertex 0.017137 -0.002113 0.148159
vertex 0.093283 -0.011505 0.148159
vertex 0.093537 -0.009212 0.148159
endloop
endfacet
facet normal 0.000000 0.000000 1.000000
outer loop
vertex 0.017137 -0.002113 0.148159
vertex 0.093537 -0.009212 0.148159
vertex 0.017184 -0.001692 0.148159
endloop
endfacet
facet normal 0.000002 -0.000000 1.000000
outer loop
vertex -0.015953 0.006608 0.148159
vertex -0.086835 0.035969 0.148159
vertex -0.087692 0.033827 0.148159
endloop
endfacet
facet normal 0.000000 -0.000000 1.000000
outer loop
vertex -0.015953 0.006608 0.148159
vertex -0.087692 0.033827 0.148159
vertex -0.016110 0.006215 0.148159
endloop
endfacet
facet normal -0.000003 0.000000 1.000000
outer loop
vertex 0.009593 -0.014357 0.148159
vertex 0.052218 -0.078150 0.148159
vertex 0.054120 -0.076845 0.148159
endloop
endfacet
facet normal 0.000057 0.000000 1.000000
outer loop
vertex 0.009593 -0.014357 0.148159
vertex 0.054120 -0.076845 0.148159
vertex 0.009943 -0.014117 0.148159
endloop
endfacet
facet normal -0.000004 -0.000000 1.000000
outer loop
vertex -0.005416 0.016396 0.148159
vertex -0.029482 0.089246 0.148159
vertex -0.031663 0.088496 0.148159
endloop
endfacet
facet normal 0.000057 -0.000000 1.000000
outer loop
vertex -0.005416 0.016396 0.148159
vertex -0.031663 0.088496 0.148159
vertex -0.005817 0.016258 0.148159
endloop
endfacet
facet normal -0.000007 0.000000 1.000000
outer loop
vertex -0.004605 -0.016641 0.148159
vertex -0.025068 -0.090585 0.148159
vertex -0.022838 -0.091173 0.148159
endloop
endfacet
facet normal 0.000000 0.000000 1.000000
outer loop
vertex -0.004605 -0.016641 0.148159
vertex -0.022838 -0.091173 0.148159
vertex -0.004196 -0.016749 0.148159
endloop
endfacet
facet normal 0.000005 -0.000000 1.000000
outer loop
vertex 0.013075 0.011279 0.148159
vertex 0.071170 0.061392 0.148159
vertex 0.069642 0.063120 0.148159
endloop
endfacet
facet normal 0.000000 -0.000000 1.000000
outer loop
vertex 0.013075 0.011279 0.148159
vertex 0.069642 0.063120 0.148159
vertex 0.012794 0.011596 0.148159
endloop
endfacet
facet normal -0.000007 0.000000 1.000000
outer loop
vertex -0.015609 -0.007382 0.148159
vertex -0.084966 -0.040185 0.148159
vertex -0.083954 -0.042258 0.148159
endloop
endfacet
facet normal 0.000029 0.000000 1.000000
outer loop
vertex -0.015609 -0.007382 0.148159
vertex -0.083954 -0.042258 0.148159
vertex -0.015423 -0.007763 0.148159
endloop
endfacet
facet normal -0.000001 0.000000 1.000000
outer loop
vertex 0.017080 -0.002533 0.148159
vertex 0.092973 -0.013791 0.148159
vertex 0.093283 -0.011505 0.148159
endloop
endfacet
facet normal 0.000007 0.000000 1.000000
outer loop
vertex 0.017080 -0.002533 0.148159
vertex 0.093283 -0.011505 0.148159
vertex 0.017137 -0.002113 0.148159
endloop
endfacet
facet normal 0.000000 -0.000000 1.000000
outer loop
vertex -0.015786 0.006998 0.148159
vertex -0.085926 0.038089 0.148159
vertex -0.086835 0.035969 0.148159
endloop
endfacet
facet normal 0.000000 -0.000000 1.000000
outer loop
vertex -0.015786 0.006998 0.148159
vertex -0.086835 0.035969 0.148159
vertex -0.015953 0.006608 0.148159
endloop
endfacet
facet normal -0.000007 -0.000000 1.000000
outer loop
vertex 0.000424 0.017262 0.148159
vertex 0.002307 0.093962 0.148159
vertex 0.000000 0.093990 0.148159
endloop
endfacet
facet normal 0.000000 -0.000000 1.000000
outer loop
vertex 0.000424 0.017262 0.148159
vertex 0.000000 0.093990 0.148159
vertex 0.000000 0.017267 0.148159
endloop
endfacet
facet normal 0.000001 0.000000 1.000000
outer loop
vertex 0.009238 -0.014588 0.148159
vertex 0.050284 -0.079408 0.148159
vertex 0.052218 -0.078150 0.148159
endloop
endfacet
facet normal -0.000057 0.000000 1.000000
outer loop
vertex 0.009238 -0.014588 0.148159
vertex 0.052218 -0.078150 0.148159
vertex 0.009593 -0.014357 0.148159
endloop
endfacet
facet normal 0.000005 -0.000000 1.000000
outer loop
vertex -0.005012 0.016524 0.148159
vertex -0.027283 0.089943 0.148159
vertex -0.029482 0.089246 0.148159
endloop
endfacet
facet normal -0.000057 -0.000000 1.000000
outer loop
vertex -0.005012 0.016524 0.148159
vertex -0.029482 0.089246 0.148159
vertex -0.005416 0.016396 0.148159
endloop
endfacet
facet normal -0.000001 0.000000 1.000000
outer loop
vertex -0.005012 -0.016523 0.148159
vertex -0.027284 -0.089942 0.148159
vertex -0.025068 -0.090585 0.148159
endloop
endfacet
facet normal 0.000057 0.000000 1.000000
outer loop
vertex -0.005012 -0.016523 0.148159
vertex -0.025068 -0.090585 0.148159
vertex -0.004605 -0.016641 0.148159
endloop
endfacet
facet normal -0.000007 -0.000000 1.000000
outer loop
vertex 0.013348 0.010954 0.148159
vertex 0.072655 0.059627 0.148159
vertex 0.071170 0.061392 0.148159
endloop
endfacet
facet normal 0.000000 -0.000000 1.000000
outer loop
vertex 0.013348 0.010954 0.148159
vertex 0.071170 0.061392 0.148159
vertex 0.013075 0.011279 0.148159
endloop
endfacet
facet normal 0.000006 0.000000 1.000000
outer loop
vertex -0.015786 -0.006997 0.148159
vertex -0.085927 -0.038088 0.148159
vertex -0.084966 -0.040185 0.148159
endloop
endfacet
facet normal 0.000000 0.000000 1.000000
outer loop
vertex -0.015786 -0.006997 0.148159
vertex -0.084966 -0.040185 0.148159
vertex -0.015609 -0.007382 0.148159
endloop
endfacet
facet normal 0.000000 0.000000 1.000000
outer loop
vertex 0.017013 -0.002952 0.148159
vertex 0.092606 -0.016069 0.148159
vertex 0.092973 -0.013791 0.148159
endloop
endfacet
facet normal 0.000007 0.000000 1.000000
outer loop
vertex 0.017013 -0.002952 0.148159
vertex 0.092973 -0.013791 0.148159
vertex 0.017080 -0.002533 0.148159
endloop
endfacet
facet normal -0.000001 -0.000000 1.000000
outer loop
vertex -0.015609 0.007383 0.148159
vertex -0.084965 0.040186 0.148159
vertex -0.085926 0.038089 0.148159
endloop
endfacet
facet normal -0.000029 -0.000000 1.000000
outer loop
vertex -0.015609 0.007383 0.148159
vertex -0.085926 0.038089 0.148159
vertex -0.015786 0.006998 0.148159
endloop
endfacet
facet normal -0.000001 0.000000 1.000000
outer loop
vertex 0.008877 -0.014810 0.148159
vertex 0.048320 -0.080618 0.148159
vertex 0.050284 -0.079408 0.148159
endloop
endfacet
facet normal 0.000057 0.000000 1.000000
outer loop
vertex 0.008877 -0.014810 0.148159
vertex 0.050284 -0.079408 0.148159
vertex 0.009238 -0.014588 0.148159
endloop
endfacet
facet normal 0.000004 -0.000000 1.000000
outer loop
vertex -0.004605 0.016642 0.148159
vertex -0.025067 0.090585 0.148159
vertex -0.027283 0.089943 0.148159
endloop
endfacet
facet normal 0.000000 -0.000000 1.000000
outer loop
vertex -0.004605 0.016642 0.148159
vertex -0.027283 0.089943 0.148159
vertex -0.005012 0.016524 0.148159
endloop
endfacet
facet normal 0.000005 -0.000000 1.000000
outer loop
vertex 0.000847 0.017246 0.148159
vertex 0.004612 0.093877 0.148159
vertex 0.002307 0.093962 0.148159
endloop
endfacet
facet normal 0.000000 -0.000000 1.000000
outer loop
vertex 0.000847 0.017246 0.148159
vertex 0.002307 0.093962 0.148159
vertex 0.000424 0.017262 0.148159
endloop
endfacet
facet normal 0.000003 0.000000 1.000000
outer loop
vertex -0.005416 -0.016395 0.148159
vertex -0.029483 -0.089246 0.148159
vertex -0.027284 -0.089942 0.148159
endloop
endfacet
facet normal -0.000057 0.000000 1.000000
outer loop
vertex -0.005416 -0.016395 0.148159
vertex -0.027284 -0.089942 0.148159
vertex -0.005012 -0.016523 0.148159
endloop
endfacet
facet normal 0.000002 -0.000000 1.000000
outer loop
vertex 0.013613 0.010623 0.148159
vertex 0.074097 0.057825 0.148159
vertex 0.072655 0.059627 0.148159
endloop
endfacet
facet normal 0.000029 -0.000000 1.000000
outer loop
vertex 0.013613 0.010623 0.148159
vertex 0.072655 0.059627 0.148159
vertex 0.013348 0.010954 0.148159
endloop
endfacet
facet normal -0.000002 0.000000 1.000000
outer loop
vertex -0.015953 -0.006608 0.148159
vertex -0.086835 -0.035968 0.148159
vertex -0.085927 -0.038088 0.148159
endloop
endfacet
facet normal 0.000000 0.000000 1.000000
outer loop
vertex -0.015953 -0.006608 0.148159
vertex -0.085927 -0.038088 0.148159
vertex -0.015786 -0.006997 0.148159
endloop
endfacet
facet normal -0.000001 0.000000 1.000000
outer loop
vertex 0.016935 -0.003368 0.148159
vertex 0.092184 -0.018336 0.148159
vertex 0.092606 -0.016069 0.148159
endloop
endfacet
facet normal -0.000007 0.000000 1.000000
outer loop
vertex 0.016935 -0.003368 0.148159
vertex 0.092606 -0.016069 0.148159
vertex 0.017013 -0.002952 0.148159
endloop
endfacet
facet normal -0.000001 -0.000000 1.000000
outer loop
vertex -0.015423 0.007764 0.148159
vertex -0.083954 0.042259 0.148159
vertex -0.084965 0.040186 0.148159
endloop
endfacet
facet normal 0.000029 -0.000000 1.000000
outer loop
vertex -0.015423 0.007764 0.148159
vertex -0.084965 0.040186 0.148159
vertex -0.015609 0.007383 0.148159
endloop
endfacet
facet normal 0.000000 0.000000 1.000000
outer loop
vertex 0.008511 -0.015024 0.148159
vertex 0.046327 -0.081779 0.148159
vertex 0.048320 -0.080618 0.148159
endloop
endfacet
facet normal -0.000057 0.000000 1.000000
outer loop
vertex 0.008511 -0.015024 0.148159
vertex 0.048320 -0.080618 0.148159
vertex 0.008877 -0.014810 0.148159
endloop
endfacet
facet normal 0.000006 -0.000000 1.000000
outer loop
vertex -0.004195 0.016750 0.148159
vertex -0.022837 0.091173 0.148159
vertex -0.025067 0.090585 0.148159
endloop
endfacet
facet normal -0.000057 -0.000000 1.000000
outer loop
vertex -0.004195 0.016750 0.148159
vertex -0.025067 0.090585 0.148159
vertex -0.004605 0.016642 0.148159
endloop
endfacet
facet normal -0.000006 -0.000000 1.000000
outer loop
vertex 0.001270 0.017220 0.148159
vertex 0.006914 0.093735 0.148159
vertex 0.004612 0.093877 0.148159
endloop
endfacet
facet normal 0.000057 -0.000000 1.000000
outer loop
vertex 0.001270 0.017220 0.148159
vertex 0.004612 0.093877 0.148159
vertex 0.000847 0.017246 0.148159
endloop
endfacet
facet normal 0.000000 0.000000 1.000000
outer loop
vertex -0.005817 -0.016258 0.148159
vertex -0.031664 -0.088495 0.148159
vertex -0.029483 -0.089246 0.148159
endloop
endfacet
facet normal 0.000000 0.000000 1.000000
outer loop
vertex -0.005817 -0.016258 0.148159
vertex -0.029483 -0.089246 0.148159
vertex -0.005416 -0.016395 0.148159
endloop
endfacet
facet normal 0.000002 -0.000000 1.000000
outer loop
vertex 0.013869 0.010286 0.148159
vertex 0.075493 0.055990 0.148159
vertex 0.074097 0.057825 0.148159
endloop
endfacet
facet normal -0.000029 -0.000000 1.000000
outer loop
vertex 0.013869 0.010286 0.148159
vertex 0.074097 0.057825 0.148159
vertex 0.013613 0.010623 0.148159
endloop
endfacet
facet normal 0.000000 0.000000 1.000000
outer loop
vertex -0.016110 -0.006214 0.148159
vertex -0.087692 -0.033826 0.148159
vertex -0.086835 -0.035968 0.148159
endloop
endfacet
facet normal -0.000029 0.000000 1.000000
outer loop
vertex -0.016110 -0.006214 0.148159
vertex -0.086835 -0.035968 0.148159
vertex -0.015953 -0.006608 0.148159
endloop
endfacet
facet normal 0.000000 0.000000 1.000000
outer loop
vertex 0.016848 -0.003783 0.148159
vertex 0.091706 -0.020593 0.148159
vertex 0.092184 -0.018336 0.148159
endloop
endfacet
facet normal 0.000000 0.000000 1.000000
outer loop
vertex 0.016848 -0.003783 0.148159
vertex 0.092184 -0.018336 0.148159
vertex 0.016935 -0.003368 0.148159
endloop
endfacet
facet normal 0.000005 -0.000000 1.000000
outer loop
vertex -0.015228 0.008140 0.148159
vertex -0.082891 0.044307 0.148159
vertex -0.083954 0.042259 0.148159
endloop
endfacet
facet normal -0.000029 -0.000000 1.000000
outer loop
vertex -0.015228 0.008140 0.148159
vertex -0.083954 0.042259 0.148159
vertex -0.015423 0.007764 0.148159
endloop
endfacet
facet normal 0.000004 0.000000 1.000000
outer loop
vertex 0.008140 -0.015228 0.148159
vertex 0.044306 -0.082892 0.148159
vertex 0.046327 -0.081779 0.148159
endloop
endfacet
facet normal 0.000057 0.000000 1.000000
outer loop
vertex 0.008140 -0.015228 0.148159
vertex 0.046327 -0.081779 0.148159
vertex 0.008511 -0.015024 0.148159
endloop
endfacet
facet normal -0.000002 -0.000000 1.000000
outer loop
vertex -0.003783 0.016848 0.148159
vertex -0.020592 0.091706 0.148159
vertex -0.022837 0.091173 0.148159
endloop
endfacet
facet normal 0.000000 -0.000000 1.000000
outer loop
vertex -0.003783 0.016848 0.148159
vertex -0.022837 0.091173 0.148159
vertex -0.004195 0.016750 0.148159
endloop
endfacet
facet normal 0.000006 -0.000000 1.000000
outer loop
vertex 0.001693 0.017184 0.148159
vertex 0.009213 0.093537 0.148159
vertex 0.006914 0.093735 0.148159
endloop
endfacet
facet normal 0.000000 -0.000000 1.000000
outer loop
vertex 0.001693 0.017184 0.148159
vertex 0.006914 0.093735 0.148159
vertex 0.001270 0.017220 0.148159
endloop
endfacet
facet normal 0.000007 0.000000 1.000000
outer loop
vertex -0.006214 -0.016110 0.148159
vertex -0.033827 -0.087692 0.148159
vertex -0.031664 -0.088495 0.148159
endloop
endfacet
facet normal 0.000057 0.000000 1.000000
outer loop
vertex -0.006214 -0.016110 0.148159
vertex -0.031664 -0.088495 0.148159
vertex -0.005817 -0.016258 0.148159
endloop
endfacet
facet normal 0.000000 -0.000000 1.000000
outer loop
vertex 0.014117 0.009943 0.148159
vertex 0.076845 0.054120 0.148159
vertex 0.075493 0.055990 0.148159
endloop
endfacet
facet normal 0.000000 -0.000000 1.000000
outer loop
vertex 0.014117 0.009943 0.148159
vertex 0.075493 0.055990 0.148159
vertex 0.013869 0.010286 0.148159
endloop
endfacet
facet normal -0.000002 0.000000 1.000000
outer loop
vertex -0.016258 -0.005817 0.148159
vertex -0.088496 -0.031664 0.148159
vertex -0.087692 -0.033826 0.148159
endloop
endfacet
facet normal 0.000029 0.000000 1.000000
outer loop
vertex -0.016258 -0.005817 0.148159
vertex -0.087692 -0.033826 0.148159
vertex -0.016110 -0.006214 0.148159
endloop
endfacet
facet normal -0.000003 0.000000 1.000000
outer loop
vertex 0.016750 -0.004195 0.148159
vertex 0.091173 -0.022837 0.148159
vertex 0.091706 -0.020593 0.148159
endloop
endfacet
facet normal 0.000000 0.000000 1.000000
outer loop
vertex 0.016750 -0.004195 0.148159
vertex 0.091706 -0.020593 0.148159
vertex 0.016848 -0.003783 0.148159
endloop
endfacet
facet normal 0.000003 -0.000000 1.000000
outer loop
vertex -0.015024 0.008511 0.148159
vertex -0.081779 0.046328 0.148159
vertex -0.082891 0.044307 0.148159
endloop
endfacet
facet normal -0.000029 -0.000000 1.000000
outer loop
vertex -0.015024 0.008511 0.148159
vertex -0.082891 0.044307 0.148159
vertex -0.015228 0.008140 0.148159
endloop
endfacet
facet normal -0.000001 0.000000 1.000000
outer loop
vertex 0.007764 -0.015423 0.148159
vertex 0.042259 -0.083954 0.148159
vertex 0.044306 -0.082892 0.148159
endloop
endfacet
facet normal -0.000057 0.000000 1.000000
outer loop
vertex 0.007764 -0.015423 0.148159
vertex 0.044306 -0.082892 0.148159
vertex 0.008140 -0.015228 0.148159
endloop
endfacet
facet normal 0.000021 -0.000000 1.000000
outer loop
vertex -0.003368 0.016936 0.148159
vertex -0.018336 0.092184 0.148159
vertex -0.020592 0.091706 0.148159
endloop
endfacet
facet normal -0.000057 -0.000000 1.000000
outer loop
vertex -0.003368 0.016936 0.148159
vertex -0.020592 0.091706 0.148159
vertex -0.003783 0.016848 0.148159
endloop
endfacet
facet normal 0.000003 -0.000000 1.000000
outer loop
vertex 0.002114 0.017137 0.148159
vertex 0.011505 0.093283 0.148159
vertex 0.009213 0.093537 0.148159
endloop
endfacet
facet normal -0.000057 -0.000000 1.000000
outer loop
vertex 0.002114 0.017137 0.148159
vertex 0.009213 0.093537 0.148159
vertex 0.001693 0.017184 0.148159
endloop
endfacet
facet normal -0.000008 0.000000 1.000000
outer loop
vertex -0.006608 -0.015953 0.148159
vertex -0.035969 -0.086835 0.148159
vertex -0.033827 -0.087692 0.148159
endloop
endfacet
facet normal -0.000057 0.000000 1.000000
outer loop
vertex -0.006608 -0.015953 0.148159
vertex -0.033827 -0.087692 0.148159
vertex -0.006214 -0.016110 0.148159
endloop
endfacet
facet normal 0.000003 -0.000000 1.000000
outer loop
vertex 0.014357 0.009593 0.148159
vertex 0.078150 0.052218 0.148159
vertex 0.076845 0.054120 0.148159
endloop
endfacet
facet normal -0.000029 -0.000000 1.000000
outer loop
vertex 0.014357 0.009593 0.148159
vertex 0.076845 0.054120 0.148159
vertex 0.014117 0.009943 0.148159
endloop
endfacet
facet normal -0.000002 0.000000 1.000000
outer loop
vertex -0.016396 -0.005416 0.148159
vertex -0.089246 -0.029482 0.148159
vertex -0.088496 -0.031664 0.148159
endloop
endfacet
facet normal 0.000014 0.000000 1.000000
outer loop
vertex -0.016396 -0.005416 0.148159
vertex -0.088496 -0.031664 0.148159
vertex -0.016258 -0.005817 0.148159
endloop
endfacet
facet normal 0.000001 0.000000 1.000000
outer loop
vertex 0.016642 -0.004605 0.148159
vertex 0.090585 -0.025068 0.148159
vertex 0.091173 -0.022837 0.148159
endloop
endfacet
facet normal 0.000000 0.000000 1.000000
outer loop
vertex 0.016642 -0.004605 0.148159
vertex 0.091173 -0.022837 0.148159
vertex 0.016750 -0.004195 0.148159
endloop
endfacet
facet normal 0.000003 -0.000000 1.000000
outer loop
vertex -0.014810 0.008877 0.148159
vertex -0.080617 0.048321 0.148159
vertex -0.081779 0.046328 0.148159
endloop
endfacet
facet normal -0.000029 -0.000000 1.000000
outer loop
vertex -0.014810 0.008877 0.148159
vertex -0.081779 0.046328 0.148159
vertex -0.015024 0.008511 0.148159
endloop
endfacet
facet normal 0.000002 0.000000 1.000000
outer loop
vertex 0.007383 -0.015609 0.148159
vertex 0.040186 -0.084966 0.148159
vertex 0.042259 -0.083954 0.148159
endloop
endfacet
facet normal 0.000057 0.000000 1.000000
outer loop
vertex 0.007383 -0.015609 0.148159
vertex 0.042259 -0.083954 0.148159
vertex 0.007764 -0.015423 0.148159
endloop
endfacet
facet normal 0.000003 -0.000000 1.000000
outer loop
vertex -0.002952 0.017013 0.148159
vertex -0.016068 0.092606 0.148159
vertex -0.018336 0.092184 0.148159
endloop
endfacet
facet normal -0.000115 -0.000000 1.000000
outer loop
vertex -0.002952 0.017013 0.148159
vertex -0.018336 0.092184 0.148159
vertex -0.003368 0.016936 0.148159
endloop
endfacet
facet normal -0.000000 -0.000000 1.000000
outer loop
vertex 0.002534 0.017080 0.148159
vertex 0.013791 0.092973 0.148159
vertex 0.011505 0.093283 0.148159
endloop
endfacet
facet normal -0.000057 -0.000000 1.000000
outer loop
vertex 0.002534 0.017080 0.148159
vertex 0.011505 0.093283 0.148159
vertex 0.002114 0.017137 0.148159
endloop
endfacet
facet normal -0.000003 0.000000 1.000000
outer loop
vertex -0.006997 -0.015786 0.148159
vertex -0.038089 -0.085926 0.148159
vertex -0.035969 -0.086835 0.148159
endloop
endfacet
facet normal 0.000057 0.000000 1.000000
outer loop
vertex -0.006997 -0.015786 0.148159
vertex -0.035969 -0.086835 0.148159
vertex -0.006608 -0.015953 0.148159
endloop
endfacet
facet normal -0.000003 -0.000000 1.000000
outer loop
vertex 0.014588 0.009238 0.148159
vertex 0.079408 0.050284 0.148159
vertex 0.078150 0.052218 0.148159
endloop
endfacet
facet normal 0.000029 -0.000000 1.000000
outer loop
vertex 0.014588 0.009238 0.148159
vertex 0.078150 0.052218 0.148159
vertex 0.014357 0.009593 0.148159
endloop
endfacet
facet normal 0.000001 0.000000 1.000000
outer loop
vertex -0.016524 -0.005012 0.148159
vertex -0.089943 -0.027283 0.148159
vertex -0.089246 -0.029482 0.148159
endloop
endfacet
facet normal 0.000000 0.000000 1.000000
outer loop
vertex -0.016524 -0.005012 0.148159
vertex -0.089246 -0.029482 0.148159
vertex -0.016396 -0.005416 0.148159
endloop
endfacet
facet normal 0.000001 0.000000 1.000000
outer loop
vertex 0.016524 -0.005012 0.148159
vertex 0.089943 -0.027284 0.148159
vertex 0.090585 -0.025068 0.148159
endloop
endfacet
facet normal -0.000014 0.000000 1.000000
outer loop
vertex 0.016524 -0.005012 0.148159
vertex 0.090585 -0.025068 0.148159
vertex 0.016642 -0.004605 0.148159
endloop
endfacet
facet normal 0.000001 -0.000000 1.000000
outer loop
vertex -0.014588 0.009238 0.148159
vertex -0.079407 0.050285 0.148159
vertex -0.080617 0.048321 0.148159
endloop
endfacet
facet normal 0.000029 -0.000000 1.000000
outer loop
vertex -0.014588 0.009238 0.148159
vertex -0.080617 0.048321 0.148159
vertex -0.014810 0.008877 0.148159
endloop
endfacet
facet normal 0.000002 0.000000 1.000000
outer loop
vertex 0.006997 -0.015786 0.148159
vertex 0.038089 -0.085926 0.148159
vertex 0.040186 -0.084966 0.148159
endloop
endfacet
facet normal 0.000000 0.000000 1.000000
outer loop
vertex 0.006997 -0.015786 0.148159
vertex 0.040186 -0.084966 0.148159
vertex 0.007383 -0.015609 0.148159
endloop
endfacet
facet normal -0.000000 -0.000000 1.000000
outer loop
vertex -0.002533 0.017080 0.148159
vertex -0.013790 0.092973 0.148159
vertex -0.016068 0.092606 0.148159
endloop
endfacet
facet normal 0.000000 -0.000000 1.000000
outer loop
vertex -0.002533 0.017080 0.148159
vertex -0.016068 0.092606 0.148159
vertex -0.002952 0.017013 0.148159
endloop
endfacet
facet normal 0.000014 -0.000000 1.000000
outer loop
vertex 0.002952 0.017013 0.148159
vertex 0.016069 0.092606 0.148159
vertex 0.013791 0.092973 0.148159
endloop
endfacet
facet normal 0.000000 -0.000000 1.000000
outer loop
vertex 0.002952 0.017013 0.148159
vertex 0.013791 0.092973 0.148159
vertex 0.002534 0.017080 0.148159
endloop
endfacet
facet normal 0.000002 0.000000 1.000000
outer loop
vertex -0.007383 -0.015609 0.148159
vertex -0.040186 -0.084966 0.148159
vertex -0.038089 -0.085926 0.148159
endloop
endfacet
facet normal -0.000057 0.000000 1.000000
outer loop
vertex -0.007383 -0.015609 0.148159
vertex -0.038089 -0.085926 0.148159
vertex -0.006997 -0.015786 0.148159
endloop
endfacet
facet normal -0.000000 -0.000000 1.000000
outer loop
vertex 0.014811 0.008877 0.148159
vertex 0.080618 0.048320 0.148159
vertex 0.079408 0.050284 0.148159
endloop
endfacet
facet normal 0.000000 -0.000000 1.000000
outer loop
vertex 0.014811 0.008877 0.148159
vertex 0.079408 0.050284 0.148159
vertex 0.014588 0.009238 0.148159
endloop
endfacet
facet normal 0.000002 0.000000 1.000000
outer loop
vertex -0.016642 -0.004605 0.148159
vertex -0.090585 -0.025068 0.148159
vertex -0.089943 -0.027283 0.148159
endloop
endfacet
facet normal -0.000014 0.000000 1.000000
outer loop
vertex -0.016642 -0.004605 0.148159
vertex -0.089943 -0.027283 0.148159
vertex -0.016524 -0.005012 0.148159
endloop
endfacet
facet normal 0.000000 0.000000 1.000000
outer loop
vertex 0.016396 -0.005416 0.148159
vertex 0.089246 -0.029483 0.148159
vertex 0.089943 -0.027284 0.148159
endloop
endfacet
facet normal -0.000014 0.000000 1.000000
outer loop
vertex 0.016396 -0.005416 0.148159
vertex 0.089943 -0.027284 0.148159
vertex 0.016524 -0.005012 0.148159
endloop
endfacet
facet normal 0.000001 -0.000000 1.000000
outer loop
vertex -0.014357 0.009593 0.148159
vertex -0.078149 0.052219 0.148159
vertex -0.079407 0.050285 0.148159
endloop
endfacet
facet normal -0.000029 -0.000000 1.000000
outer loop
vertex -0.014357 0.009593 0.148159
vertex -0.079407 0.050285 0.148159
vertex -0.014588 0.009238 0.148159
endloop
endfacet
facet normal 0.000003 0.000000 1.000000
outer loop
vertex 0.006608 -0.015953 0.148159
vertex 0.035968 -0.086835 0.148159
vertex 0.038089 -0.085926 0.148159
endloop
endfacet
facet normal -0.000057 0.000000 1.000000
outer loop
vertex 0.006608 -0.015953 0.148159
vertex 0.038089 -0.085926 0.148159
vertex 0.006997 -0.015786 0.148159
endloop
endfacet
facet normal -0.000004 -0.000000 1.000000
outer loop
vertex -0.002113 0.017137 0.148159
vertex -0.011504 0.093283 0.148159
vertex -0.013790 0.092973 0.148159
endloop
endfacet
facet normal 0.000000 -0.000000 1.000000
outer loop
vertex -0.002113 0.017137 0.148159
vertex -0.013790 0.092973 0.148159
vertex -0.002533 0.017080 0.148159
endloop
endfacet
facet normal 0.000003 -0.000000 1.000000
outer loop
vertex 0.003369 0.016935 0.148159
vertex 0.018337 0.092184 0.148159
vertex 0.016069 0.092606 0.148159
endloop
endfacet
facet normal 0.000000 -0.000000 1.000000
outer loop
vertex 0.003369 0.016935 0.148159
vertex 0.016069 0.092606 0.148159
vertex 0.002952 0.017013 0.148159
endloop
endfacet
facet normal -0.000004 0.000000 1.000000
outer loop
vertex -0.007763 -0.015423 0.148159
vertex -0.042259 -0.083954 0.148159
vertex -0.040186 -0.084966 0.148159
endloop
endfacet
facet normal 0.000057 0.000000 1.000000
outer loop
vertex -0.007763 -0.015423 0.148159
vertex -0.040186 -0.084966 0.148159
vertex -0.007383 -0.015609 0.148159
endloop
endfacet
facet normal 0.000003 -0.000000 1.000000
outer loop
vertex 0.015024 0.008511 0.148159
vertex 0.081779 0.046327 0.148159
vertex 0.080618 0.048320 0.148159
endloop
endfacet
facet normal 0.000000 -0.000000 1.000000
outer loop
vertex 0.015024 0.008511 0.148159
vertex 0.080618 0.048320 0.148159
vertex 0.014811 0.008877 0.148159
endloop
endfacet
facet normal 0.000002 0.000000 1.000000
outer loop
vertex -0.016750 -0.004195 0.148159
vertex -0.091173 -0.022837 0.148159
vertex -0.090585 -0.025068 0.148159
endloop
endfacet
facet normal -0.000014 0.000000 1.000000
outer loop
vertex -0.016750 -0.004195 0.148159
vertex -0.090585 -0.025068 0.148159
vertex -0.016642 -0.004605 0.148159
endloop
endfacet
facet normal -0.000002 0.000000 1.000000
outer loop
vertex 0.016258 -0.005817 0.148159
vertex 0.088496 -0.031664 0.148159
vertex 0.089246 -0.029483 0.148159
endloop
endfacet
facet normal 0.000000 0.000000 1.000000
outer loop
vertex 0.016258 -0.005817 0.148159
vertex 0.089246 -0.029483 0.148159
vertex 0.016396 -0.005416 0.148159
endloop
endfacet
facet normal 0.000002 -0.000000 1.000000
outer loop
vertex -0.014117 0.009943 0.148159
vertex -0.076844 0.054121 0.148159
vertex -0.078149 0.052219 0.148159
endloop
endfacet
facet normal 0.000000 -0.000000 1.000000
outer loop
vertex -0.014117 0.009943 0.148159
vertex -0.078149 0.052219 0.148159
vertex -0.014357 0.009593 0.148159
endloop
endfacet
facet normal -0.000002 0.000000 1.000000
outer loop
vertex 0.006214 -0.016110 0.148159
vertex 0.033826 -0.087692 0.148159
vertex 0.035968 -0.086835 0.148159
endloop
endfacet
facet normal 0.000000 0.000000 1.000000
outer loop
vertex 0.006214 -0.016110 0.148159
vertex 0.035968 -0.086835 0.148159
vertex 0.006608 -0.015953 0.148159
endloop
endfacet
facet normal 0.000001 -0.000000 1.000000
outer loop
vertex -0.001692 0.017184 0.148159
vertex -0.009212 0.093537 0.148159
vertex -0.011504 0.093283 0.148159
endloop
endfacet
facet normal 0.000057 -0.000000 1.000000
outer loop
vertex -0.001692 0.017184 0.148159
vertex -0.011504 0.093283 0.148159
vertex -0.002113 0.017137 0.148159
endloop
endfacet
facet normal 0.000001 -0.000000 1.000000
outer loop
vertex 0.003783 0.016848 0.148159
vertex 0.020593 0.091706 0.148159
vertex 0.018337 0.092184 0.148159
endloop
endfacet
facet normal 0.000000 -0.000000 1.000000
outer loop
vertex 0.003783 0.016848 0.148159
vertex 0.018337 0.092184 0.148159
vertex 0.003369 0.016935 0.148159
endloop
endfacet
facet normal 0.000003 0.000000 1.000000
outer loop
vertex -0.008140 -0.015228 0.148159
vertex -0.044307 -0.082891 0.148159
vertex -0.042259 -0.083954 0.148159
endloop
endfacet
facet normal -0.000057 0.000000 1.000000
outer loop
vertex -0.008140 -0.015228 0.148159
vertex -0.042259 -0.083954 0.148159
vertex -0.007763 -0.015423 0.148159
endloop
endfacet
facet normal 0.000008 -0.000000 1.000000
outer loop
vertex 0.015228 0.008140 0.148159
vertex 0.082892 0.044307 0.148159
vertex 0.081779 0.046327 0.148159
endloop
endfacet
facet normal -0.000029 -0.000000 1.000000
outer loop
vertex 0.015228 0.008140 0.148159
vertex 0.081779 0.046327 0.148159
vertex 0.015024 0.008511 0.148159
endloop
endfacet
facet normal -0.000002 0.000000 1.000000
outer loop
vertex -0.016848 -0.003783 0.148159
vertex -0.091706 -0.020593 0.148159
vertex -0.091173 -0.022837 0.148159
endloop
endfacet
facet normal 0.000000 0.000000 1.000000
outer loop
vertex -0.016848 -0.003783 0.148159
vertex -0.091173 -0.022837 0.148159
vertex -0.016750 -0.004195 0.148159
endloop
endfacet
facet normal 0.000001 0.000000 1.000000
outer loop
vertex 0.016110 -0.006214 0.148159
vertex 0.087692 -0.033826 0.148159
vertex 0.088496 -0.031664 0.148159
endloop
endfacet
facet normal 0.000014 0.000000 1.000000
outer loop
vertex 0.016110 -0.006214 0.148159
vertex 0.088496 -0.031664 0.148159
vertex 0.016258 -0.005817 0.148159
endloop
endfacet
facet normal -0.000001 -0.000000 1.000000
outer loop
vertex -0.013869 0.010286 0.148159
vertex -0.075493 0.055990 0.148159
vertex -0.076844 0.054121 0.148159
endloop
endfacet
facet normal 0.000029 -0.000000 1.000000
outer loop
vertex -0.013869 0.010286 0.148159
vertex -0.076844 0.054121 0.148159
vertex -0.014117 0.009943 0.148159
endloop
endfacet
facet normal -0.000003 0.000000 1.000000
outer loop
vertex 0.005817 -0.016258 0.148159
vertex 0.031664 -0.088495 0.148159
vertex 0.033826 -0.087692 0.148159
endloop
endfacet
facet normal 0.000057 0.000000 1.000000
outer loop
vertex 0.005817 -0.016258 0.148159
vertex 0.033826 -0.087692 0.148159
vertex 0.006214 -0.016110 0.148159
endloop
endfacet
facet normal 0.000001 -0.000000 1.000000
outer loop
vertex -0.001270 0.017220 0.148159
vertex -0.006913 0.093735 0.148159
vertex -0.009212 0.093537 0.148159
endloop
endfacet
facet normal 0.000000 -0.000000 1.000000
outer loop
vertex -0.001270 0.017220 0.148159
vertex -0.009212 0.093537 0.148159
vertex -0.001692 0.017184 0.148159
endloop
endfacet
facet normal -0.000002 -0.000000 1.000000
outer loop
vertex 0.004196 0.016750 0.148159
vertex 0.022838 0.091173 0.148159
vertex 0.020593 0.091706 0.148159
endloop
endfacet
facet normal -0.000057 -0.000000 1.000000
outer loop
vertex 0.004196 0.016750 0.148159
vertex 0.020593 0.091706 0.148159
vertex 0.003783 0.016848 0.148159
endloop
endfacet
facet normal -0.000000 0.000000 1.000000
outer loop
vertex -0.008511 -0.015024 0.148159
vertex -0.046328 -0.081779 0.148159
vertex -0.044307 -0.082891 0.148159
endloop
endfacet
facet normal 0.000057 0.000000 1.000000
outer loop
vertex -0.008511 -0.015024 0.148159
vertex -0.044307 -0.082891 0.148159
vertex -0.008140 -0.015228 0.148159
endloop
endfacet
facet normal 0.000002 -0.000000 1.000000
outer loop
vertex 0.015423 0.007764 0.148159
vertex 0.083954 0.042259 0.148159
vertex 0.082892 0.044307 0.148159
endloop
endfacet
facet normal 0.000000 -0.000000 1.000000
outer loop
vertex 0.015423 0.007764 0.148159
vertex 0.082892 0.044307 0.148159
vertex 0.015228 0.008140 0.148159
endloop
endfacet
facet normal 0.000001 0.000000 1.000000
outer loop
vertex -0.016935 -0.003368 0.148159
vertex -0.092184 -0.018336 0.148159
vertex -0.091706 -0.020593 0.148159
endloop
endfacet
facet normal 0.000000 0.000000 1.000000
outer loop
vertex -0.016935 -0.003368 0.148159
vertex -0.091706 -0.020593 0.148159
vertex -0.016848 -0.003783 0.148159
endloop
endfacet
facet normal -0.000001 0.000000 1.000000
outer loop
vertex 0.015953 -0.006608 0.148159
vertex 0.086835 -0.035968 0.148159
vertex 0.087692 -0.033826 0.148159
endloop
endfacet
facet normal 0.000000 0.000000 1.000000
outer loop
vertex 0.015953 -0.006608 0.148159
vertex 0.087692 -0.033826 0.148159
vertex 0.016110 -0.006214 0.148159
endloop
endfacet
facet normal 0.000002 -0.000000 1.000000
outer loop
vertex -0.013612 0.010624 0.148159
vertex -0.074096 0.057826 0.148159
vertex -0.075493 0.055990 0.148159
endloop
endfacet
facet normal -0.000029 -0.000000 1.000000
outer loop
vertex -0.013612 0.010624 0.148159
vertex -0.075493 0.055990 0.148159
vertex -0.013869 0.010286 0.148159
endloop
endfacet
facet normal -0.000002 0.000000 1.000000
outer loop
vertex 0.005416 -0.016395 0.148159
vertex 0.029483 -0.089246 0.148159
vertex 0.031664 -0.088495 0.148159
endloop
endfacet
facet normal 0.000000 0.000000 1.000000
outer loop
vertex 0.005416 -0.016395 0.148159
vertex 0.031664 -0.088495 0.148159
vertex 0.005817 -0.016258 0.148159
endloop
endfacet
facet normal -0.000001 -0.000000 1.000000
outer loop
vertex -0.000847 0.017246 0.148159
vertex -0.004611 0.093877 0.148159
vertex -0.006913 0.093735 0.148159
endloop
endfacet
facet normal 0.000000 -0.000000 1.000000
outer loop
vertex -0.000847 0.017246 0.148159
vertex -0.006913 0.093735 0.148159
vertex -0.001270 0.017220 0.148159
endloop
endfacet
facet normal 0.000002 -0.000000 1.000000
outer loop
vertex 0.004605 0.016642 0.148159
vertex 0.025068 0.090585 0.148159
vertex 0.022838 0.091173 0.148159
endloop
endfacet
facet normal 0.000000 -0.000000 1.000000
outer loop
vertex 0.004605 0.016642 0.148159
vertex 0.022838 0.091173 0.148159
vertex 0.004196 0.016750 0.148159
endloop
endfacet
facet normal 0.000000 0.000000 1.000000
outer loop
vertex -0.008877 -0.014810 0.148159
vertex -0.048321 -0.080618 0.148159
vertex -0.046328 -0.081779 0.148159
endloop
endfacet
facet normal -0.000057 0.000000 1.000000
outer loop
vertex -0.008877 -0.014810 0.148159
vertex -0.046328 -0.081779 0.148159
vertex -0.008511 -0.015024 0.148159
endloop
endfacet
facet normal 0.000000 -0.000000 1.000000
outer loop
vertex 0.015609 0.007383 0.148159
vertex 0.084966 0.040186 0.148159
vertex 0.083954 0.042259 0.148159
endloop
endfacet
facet normal 0.000000 -0.000000 1.000000
outer loop
vertex 0.015609 0.007383 0.148159
vertex 0.083954 0.042259 0.148159
vertex 0.015423 0.007764 0.148159
endloop
endfacet
facet normal 0.000000 0.000000 1.000000
outer loop
vertex -0.017013 -0.002952 0.148159
vertex -0.092606 -0.016068 0.148159
vertex -0.092184 -0.018336 0.148159
endloop
endfacet
facet normal 0.000000 0.000000 1.000000
outer loop
vertex -0.017013 -0.002952 0.148159
vertex -0.092184 -0.018336 0.148159
vertex -0.016935 -0.003368 0.148159
endloop
endfacet
facet normal 0.000001 0.000000 1.000000
outer loop
vertex 0.015786 -0.006997 0.148159
vertex 0.085926 -0.038088 0.148159
vertex 0.086835 -0.035968 0.148159
endloop
endfacet
facet normal -0.000029 0.000000 1.000000
outer loop
vertex 0.015786 -0.006997 0.148159
vertex 0.086835 -0.035968 0.148159
vertex 0.015953 -0.006608 0.148159
endloop
endfacet
facet normal 0.000001 -0.000000 1.000000
outer loop
vertex -0.013347 0.010954 0.148159
vertex -0.072655 0.059627 0.148159
vertex -0.074096 0.057826 0.148159
endloop
endfacet
facet normal 0.000000 -0.000000 1.000000
outer loop
vertex -0.013347 0.010954 0.148159
vertex -0.074096 0.057826 0.148159
vertex -0.013612 0.010624 0.148159
endloop
endfacet
facet normal -0.000009 0.000000 1.000000
outer loop
vertex 0.005012 -0.016523 0.148159
vertex 0.027284 -0.089943 0.148159
vertex 0.029483 -0.089246 0.148159
endloop
endfacet
facet normal 0.000057 0.000000 1.000000
outer loop
vertex 0.005012 -0.016523 0.148159
vertex 0.029483 -0.089246 0.148159
vertex 0.005416 -0.016395 0.148159
endloop
endfacet
endsolid Exported from Blender-2.81 (sub 16)
